<?xml version="1.0" encoding="UTF-8"?>
<svg viewBox="0 0 238.32581 271.5918" xmlns="http://www.w3.org/2000/svg">
 <path d="m116.0043,267.0769c-2.2422-1.6096-5.5316-3.9407-9.8683-6.9933s-8.8512-6.2178-13.5432-9.4957-8.6917-6.0596-11.9993-8.3452-5.0534-3.4661-5.2372-3.5417l.1011.7366 .339,1.9916 .5138,2.9188 .6254,3.5182c.222,1.2798.443,2.5599.6631,3.8403s.4272,2.4932.6217,3.6388 .3646,2.1563.5102,3.032l.328,2.0199 .5437,3.4434 10.7187,2.1489c1.9886.4069 3.8189.755 5.4907,1.0441s3.2538.5248 4.7457.7067 2.9621.3156 4.4106.4009 2.9439.1275 4.486.1267c2.0169.0289 3.585.0422 4.7043.0396l2.2893-.1108 .4301-.373-.8734-.7468z" fill="#8cb5ff"/>
 <path d="m116.0043,267.0769c-2.2422-1.6096-5.5316-3.9407-9.8683-6.9933s-8.8512-6.2178-13.5432-9.4957-8.6917-6.0596-11.9993-8.3452-5.0534-3.4661-5.2372-3.5417l.1011.7366 .339,1.9916 .5138,2.9188 .6254,3.5182c.222,1.2798.443,2.5599.6631,3.8403s.4272,2.4932.6217,3.6388 .3646,2.1563.5102,3.032l.328,2.0199 .5437,3.4434 10.7187,2.1489c1.9886.4069 3.8189.755 5.4907,1.0441s3.2538.5248 4.7457.7067 2.9621.3156 4.4106.4009 2.9439.1275 4.486.1267c2.0169.0289 3.585.0422 4.7043.0396l2.2893-.1108 .4301-.373-.8734-.7468z" fill="#8cb5ff"/>
 <path d="m132 244.97c1.1136-2.5805 2.1484-5.0004 3.1044-7.2597s1.7916-4.2538 2.5073-5.9832 1.2698-3.0895 1.6626-4.0802l0.5704-1.5509c-0.3247-0.1941-2.3549-0.887-6.0907-2.0789s-8.0443-2.5346-12.926-4.028-9.2031-2.7891-12.965-3.8873-5.8308-1.6503-6.2072-1.6565l-1.3148 0.8754c-0.7477 0.5483-1.7313 1.2964-2.9507 2.2444s-2.601 2.0391-4.1449 3.2735-3.1763 2.5553-4.8973 3.9628l-12.505 10.02 8.5956 6.1618c1.1994 0.8239 2.6939 1.859 4.4835 3.1053s3.7461 2.6146 5.8695 4.1052 4.2853 3.0144 6.4859 4.5713 4.3116 3.058 6.3331 4.5033l14.68 10.227 0.8284-1.9158 0.9689-2.2372c0.521-1.2008 1.1894-2.7442 2.0053-4.6302s1.7286-4.0025 2.7383-6.3489 2.0657-4.8106 3.168-7.3926z" fill="#8cb5ff"/>
 <path d="m132 244.97c1.1136-2.5805 2.1484-5.0004 3.1044-7.2597s1.7916-4.2538 2.5073-5.9832 1.2698-3.0895 1.6626-4.0802l0.5704-1.5509c-0.3247-0.1941-2.3549-0.887-6.0907-2.0789s-8.0443-2.5346-12.926-4.028-9.2031-2.7891-12.965-3.8873-5.8308-1.6503-6.2072-1.6565l-1.3148 0.8754c-0.7477 0.5483-1.7313 1.2964-2.9507 2.2444s-2.601 2.0391-4.1449 3.2735-3.1763 2.5553-4.8973 3.9628l-12.505 10.02 8.5956 6.1618c1.1994 0.8239 2.6939 1.859 4.4835 3.1053s3.7461 2.6146 5.8695 4.1052 4.2853 3.0144 6.4859 4.5713 4.3116 3.058 6.3331 4.5033l14.68 10.227 0.8284-1.9158 0.9689-2.2372c0.521-1.2008 1.1894-2.7442 2.0053-4.6302s1.7286-4.0025 2.7383-6.3489 2.0657-4.8106 3.168-7.3926z" fill="#b0f8ff"/>
 <path d="m137.9334,264.695c1.8651-.4145 3.462-.809 4.7906-1.1833s2.5775-.8053 3.7468-1.2925 2.4473-1.1074 3.8342-1.8604 3.0711-1.7156 5.0527-2.8872l8.9581-5.2817-2.3302-2.6926c-1.7047-1.9419-3.6367-4.1115-5.7962-6.5086s-4.2597-4.7098-6.3011-6.9383-3.7371-4.0605-5.0874-5.4964-2.0688-2.1637-2.1554-2.1833c-.1632.2634-1.0375,2.2286-2.623,5.8958s-3.4081,7.922-5.4678,12.7648-3.8822,9.159-5.4677,12.9492-2.4598,5.9398-2.623,6.4491l-.14.6979 .127.341 .4571.0352 .8504-.2197 1.3423-.3827 2.3665-.6205c.9317-.2389 1.9503-.4943 3.0559-.7662s2.2423-.5452 3.4102-.8196z" fill="#8cb5ff"/>
 <path d="m137.9334,264.695c1.8651-.4145 3.462-.809 4.7906-1.1833s2.5775-.8053 3.7468-1.2925 2.4473-1.1074 3.8342-1.8604 3.0711-1.7156 5.0527-2.8872l8.9581-5.2817-2.3302-2.6926c-1.7047-1.9419-3.6367-4.1115-5.7962-6.5086s-4.2597-4.7098-6.3011-6.9383-3.7371-4.0605-5.0874-5.4964-2.0688-2.1637-2.1554-2.1833c-.1632.2634-1.0375,2.2286-2.623,5.8958s-3.4081,7.922-5.4678,12.7648-3.8822,9.159-5.4677,12.9492-2.4598,5.9398-2.623,6.4491l-.14.6979 .127.341 .4571.0352 .8504-.2197 1.3423-.3827 2.3665-.6205c.9317-.2389 1.9503-.4943 3.0559-.7662s2.2423-.5452 3.4102-.8196z" fill="#8cb5ff"/>
 <path d="m75.8482,260.6043c-.0194-.3591-.22-1.7122-.6019-4.0592s-.8285-5.0091-1.3399-7.9863-.9709-5.5909-1.3786-7.8408-.6473-3.4573-.7185-3.6222c-.1754-.0622-1.399.1075-3.6707.5089s-4.9275.9028-7.967,1.5041-5.7988,1.1706-8.2777,1.7079-4.0131.9109-4.6028,1.1206l.0837.6906 2.0037,1.7075c1.0128.7562 2.4202,1.7348 4.2222,2.9357s4.0484,2.6593 6.7392,4.3751c3.4416,2.2237 6.2009,3.9949 8.2776,5.3136s3.637,2.28 4.6805,2.884l2.0785,1.0246 .4717-.2641z" fill="#8cb5ff"/>
 <path d="m75.8482,260.6043c-.0194-.3591-.22-1.7122-.6019-4.0592s-.8285-5.0091-1.3399-7.9863-.9709-5.5909-1.3786-7.8408-.6473-3.4573-.7185-3.6222c-.1754-.0622-1.399.1075-3.6707.5089s-4.9275.9028-7.967,1.5041-5.7988,1.1706-8.2777,1.7079-4.0131.9109-4.6028,1.1206l.0837.6906 2.0037,1.7075c1.0128.7562 2.4202,1.7348 4.2222,2.9357s4.0484,2.6593 6.7392,4.3751c3.4416,2.2237 6.2009,3.9949 8.2776,5.3136s3.637,2.28 4.6805,2.884l2.0785,1.0246 .4717-.2641z" fill="#8cb5ff"/>
 <path d="m172.5748,246.1574 2.3714-1.7152 2.5996-1.9094 2.5219-1.8512 2.1384-1.5405c1.3904-1.0397 3.053-2.5671 4.9879-4.5822s3.7998-4.1048 5.5948-6.2691c1.7949-2.1643 3.1776-3.9903 4.1481-5.4778l.6481-2.2084-2.2278.2642c-1.2578.1472-2.909.3364-4.9536.5675s-4.3608.4866-6.9487.7666-5.3257.567-8.2134.8613c-2.8878.3256-5.6252.6323-8.2121.9199l-6.9402.7694-4.9305.5462-2.1829.2499-.8026.1509-1.0745.1049-1.2104.061-1.2103.0198-1.0482.1137-.8322.1743-.5262.2181-.1307.2448c.1687.3037 1.2779,1.6283 3.3278,3.9737s4.4163,5.0156 7.0996,8.0102 5.0595,5.618 7.1288,7.8695 3.2075,3.4355 3.4151,3.5515l.504-.3046 1.1982-.8313 1.7129-1.2343 2.0477-1.5134z" fill="#8cb5ff"/>
 <path d="m172.5748,246.1574 2.3714-1.7152 2.5996-1.9094 2.5219-1.8512 2.1384-1.5405c1.3904-1.0397 3.053-2.5671 4.9879-4.5822s3.7998-4.1048 5.5948-6.2691c1.7949-2.1643 3.1776-3.9903 4.1481-5.4778l.6481-2.2084-2.2278.2642c-1.2578.1472-2.909.3364-4.9536.5675s-4.3608.4866-6.9487.7666-5.3257.567-8.2134.8613c-2.8878.3256-5.6252.6323-8.2121.9199l-6.9402.7694-4.9305.5462-2.1829.2499-.8026.1509-1.0745.1049-1.2104.061-1.2103.0198-1.0482.1137-.8322.1743-.5262.2181-.1307.2448c.1687.3037 1.2779,1.6283 3.3278,3.9737s4.4163,5.0156 7.0996,8.0102 5.0595,5.618 7.1288,7.8695 3.2075,3.4355 3.4151,3.5515l.504-.3046 1.1982-.8313 1.7129-1.2343 2.0477-1.5134z" fill="#8cb5ff"/>
 <path d="m47.5759,238.3903 1.9782-.3936 3.0898-.6194 3.7792-.7601 4.0462-.8159 3.8561-.7638 3.1667-.6279 2.1667-.4433 .856-.2104c-.0215-.2705-1.0319-2.2247-3.0312-5.8626s-4.3536-7.8412-7.0628-12.6102-5.1396-8.9853-7.291-12.6491-3.39-5.6568-3.7157-5.9791c-.6197-.3103-2.1618-.9226-4.6263-1.837s-5.2007-1.8996-8.2089-2.9559-5.6376-1.9527-7.8885-2.689-3.4725-1.0817-3.6651-1.036l.3585,1.4167c.2663.9023.6495,2.1366 1.1497,3.7031s1.0872,3.3673 1.7613,5.4022c.6741,2.035 1.4052,4.2063 2.1934,6.5139 2.1254,6.1963 3.9022,11.372 5.3302,15.527s2.5704,7.4713 3.4272,9.9492 1.4912,4.299 1.903,5.4637l.7573,2.0704 .46.6585 .9866.2412 1.6809-.157 2.5425-.5356z" fill="#8cb5ff"/>
 <path d="m47.5759,238.3903 1.9782-.3936 3.0898-.6194 3.7792-.7601 4.0462-.8159 3.8561-.7638 3.1667-.6279 2.1667-.4433 .856-.2104c-.0215-.2705-1.0319-2.2247-3.0312-5.8626s-4.3536-7.8412-7.0628-12.6102-5.1396-8.9853-7.291-12.6491-3.39-5.6568-3.7157-5.9791c-.6197-.3103-2.1618-.9226-4.6263-1.837s-5.2007-1.8996-8.2089-2.9559-5.6376-1.9527-7.8885-2.689-3.4725-1.0817-3.6651-1.036l.3585,1.4167c.2663.9023.6495,2.1366 1.1497,3.7031s1.0872,3.3673 1.7613,5.4022c.6741,2.035 1.4052,4.2063 2.1934,6.5139 2.1254,6.1963 3.9022,11.372 5.3302,15.527s2.5704,7.4713 3.4272,9.9492 1.4912,4.299 1.903,5.4637l.7573,2.0704 .46.6585 .9866.2412 1.6809-.157 2.5425-.5356z" fill="#b0f8ff"/>
 <path d="m204.42,220.6036-.2847-.4159-1.0616.8172-2.0324,2.2347c-.8555.9965-1.9213,2.2754-3.1974,3.8366l-5.3334,6.5761 5.9547-6.2654c.8274-.8418 1.5999-1.6502 2.3176-2.4252l1.8929-2.1024 1.2763-1.5344 .468-.7213z" fill="#8cb5ff"/>
 <path d="m204.42,220.6036-.2847-.4159-1.0616.8172-2.0324,2.2347c-.8555.9965-1.9213,2.2754-3.1974,3.8366l-5.3334,6.5761 5.9547-6.2654c.8274-.8418 1.5999-1.6502 2.3176-2.4252l1.8929-2.1024 1.2763-1.5344 .468-.7213z" fill="#8cb5ff"/>
 <path d="m30.1516,213.7944c-.8616-2.4995-1.7015-4.931-2.5194-7.2946s-1.5705-4.5362-2.2574-6.5179l-1.733-5.0033-.9466-2.7509-1.2169-3.4434-3.4175,6.369-3.4175,6.2396 2.1748,3.6764c1.5182,2.5488 3.3168,5.3948 5.3957,8.5382s4.1445,6.1658 6.1967,9.0673 3.7974,5.2638 5.2355,7.0867 2.2756,2.6884 2.5122,2.5963l-.4033-1.5861c-.2956-.9829-.7189-2.3215-1.2699-4.0159s-1.1958-3.6463-1.9349-5.8557-1.5385-4.578-2.3985-7.1057z" fill="#8cb5ff"/>
 <path d="m30.1516,213.7944c-.8616-2.4995-1.7015-4.931-2.5194-7.2946s-1.5705-4.5362-2.2574-6.5179l-1.733-5.0033-.9466-2.7509-1.2169-3.4434-3.4175,6.369-3.4175,6.2396 2.1748,3.6764c1.5182,2.5488 3.3168,5.3948 5.3957,8.5382s4.1445,6.1658 6.1967,9.0673 3.7974,5.2638 5.2355,7.0867 2.2756,2.6884 2.5122,2.5963l-.4033-1.5861c-.2956-.9829-.7189-2.3215-1.2699-4.0159s-1.1958-3.6463-1.9349-5.8557-1.5385-4.578-2.3985-7.1057z" fill="#8cb5ff"/>
 <path d="m86.2303,222.3123c1.7467-1.4034 3.3099-2.6904 4.6894-3.8612s2.5413-2.1934 3.4855-3.0677l2.0777-2.0821 .466-.905-2.0085-.6408c-1.1835-.394-2.7632-.9247-4.7392-1.5922l-6.7635-2.2816c-2.533-.8535-5.2268-1.7565-8.0814-2.7088l-20.557-6.7833 2.6667,4.8415c3.1787,5.7922 5.8053,10.5576 7.88,14.2964s3.7102,6.6498 4.9066,8.7332 2.0666,3.5381 2.6105,4.3641l.9916,1.1893 1.1727-.7565c.6804-.4953 1.585-1.1795 2.7141-2.0526s2.4171-1.881 3.8645-3.0235 2.9888-2.3656 4.6243-3.6692z" fill="#8cb5ff"/>
 <path d="m86.2303,222.3123c1.7467-1.4034 3.3099-2.6904 4.6894-3.8612s2.5413-2.1934 3.4855-3.0677l2.0777-2.0821 .466-.905-2.0085-.6408c-1.1835-.394-2.7632-.9247-4.7392-1.5922l-6.7635-2.2816c-2.533-.8535-5.2268-1.7565-8.0814-2.7088l-20.557-6.7833 2.6667,4.8415c3.1787,5.7922 5.8053,10.5576 7.88,14.2964s3.7102,6.6498 4.9066,8.7332 2.0666,3.5381 2.6105,4.3641l.9916,1.1893 1.1727-.7565c.6804-.4953 1.585-1.1795 2.7141-2.0526s2.4171-1.881 3.8645-3.0235 2.9888-2.3656 4.6243-3.6692z" fill="#b3b3ff"/>
 <path d="m143.0597,206.571c.2091-1.8207.4204-3.6098.634-5.3675s.4175-3.3946.612-4.911 .3678-2.8234.5198-3.9208l.3573-2.3965 .6214-3.4693-2.7445,1.6311c-4.1866,2.5487-8.4657,5.1893-12.8371,7.9217s-8.4152,5.2936-12.1309,7.6838-6.6833,4.3462-8.9027,5.8682-3.2702,2.347-3.1525,2.475l1.6747.508 3.8982,1.2266c1.6213.5108 3.4676,1.0879 5.5389,1.7314s4.2702,1.3177 6.5972,2.0227c4.0868,1.3106 7.2872,2.3206 9.6013,3.03s3.9983,1.1773 5.0527,1.4037l2.0429.1319 .572-.7856 .3159-1.6655c.138-.8765.2991-1.9924.4835-3.3475s.3827-2.8675.5951-4.537 .4292-3.4139.6508-5.2334z" fill="#8cb5ff"/>
 <path d="m143.0597,206.571c.2091-1.8207.4204-3.6098.634-5.3675s.4175-3.3946.612-4.911 .3678-2.8234.5198-3.9208l.3573-2.3965 .6214-3.4693-2.7445,1.6311c-4.1866,2.5487-8.4657,5.1893-12.8371,7.9217s-8.4152,5.2936-12.1309,7.6838-6.6833,4.3462-8.9027,5.8682-3.2702,2.347-3.1525,2.475l1.6747.508 3.8982,1.2266c1.6213.5108 3.4676,1.0879 5.5389,1.7314s4.2702,1.3177 6.5972,2.0227c4.0868,1.3106 7.2872,2.3206 9.6013,3.03s3.9983,1.1773 5.0527,1.4037l2.0429.1319 .572-.7856 .3159-1.6655c.138-.8765.2991-1.9924.4835-3.3475s.3827-2.8675.5951-4.537 .4292-3.4139.6508-5.2334z" fill="#b3b3ff"/>
 <path d="m170.3223,220.4741 19.091-2.0951c4.328-.4789 7.2547-.8625 8.7801-1.1509l2.2751-.9519-.4239-1.498-.3851-1.6007-.657-2.6226c-.2555-1.0148-.5295-2.1107-.822-3.2877s-.5861-2.3757-.8803-3.5959c-.31-1.2381-.6981-2.775-1.1643-4.6106l-1.5283-6.0207c-.5528-2.1782-1.114-4.4003-1.6837-6.6664s-1.1132-4.4485-1.6303-6.5474l-3.8318-15.0941-2.6667,1.1909c-.824.4053-1.799.8941-2.9252,1.4665s-2.3529,1.2043-3.6801,1.896-2.7044,1.4192-4.1315,2.1825-2.8538,1.5386-4.2796,2.3257l-2.3561,1.2371c-.9447.4953-1.9825,1.0387-3.1133,1.6303l-3.4725,1.8147c-1.1842.6183-2.3288,1.2151-3.4338,1.7905-1.1013.5412-2.1366,1.0576-3.106,1.5494l-2.5769,1.3309-1.7808.9717-.7176.4717-.1675.3572-.182.8305-.1821,1.1752-.1675,1.3912-.3285,2.6667-.5517,4.5114c-.2155,1.7587-.4512,3.6671-.7072,5.725s-.5208,4.1606-.7945,6.3076c-.4778,3.6549-.8442,6.5379-1.0991,8.649-.255,2.1112-.4053,3.6576-.4511,4.6393l.1558,1.8722 .7212.3479 2.3435-.2043c1.3712-.1338 3.1953-.3192 5.4722-.5563s4.8696-.5113 7.7781-.8232 5.9954-.647 9.261-1.0053z" fill="#8cb5ff"/>
 <path d="m170.3223,220.4741 19.091-2.0951c4.328-.4789 7.2547-.8625 8.7801-1.1509l2.2751-.9519-.4239-1.498-.3851-1.6007-.657-2.6226c-.2555-1.0148-.5295-2.1107-.822-3.2877s-.5861-2.3757-.8803-3.5959c-.31-1.2381-.6981-2.775-1.1643-4.6106l-1.5283-6.0207c-.5528-2.1782-1.114-4.4003-1.6837-6.6664s-1.1132-4.4485-1.6303-6.5474l-3.8318-15.0941-2.6667,1.1909c-.824.4053-1.799.8941-2.9252,1.4665s-2.3529,1.2043-3.6801,1.896-2.7044,1.4192-4.1315,2.1825-2.8538,1.5386-4.2796,2.3257l-2.3561,1.2371c-.9447.4953-1.9825,1.0387-3.1133,1.6303l-3.4725,1.8147c-1.1842.6183-2.3288,1.2151-3.4338,1.7905-1.1013.5412-2.1366,1.0576-3.106,1.5494l-2.5769,1.3309-1.7808.9717-.7176.4717-.1675.3572-.182.8305-.1821,1.1752-.1675,1.3912-.3285,2.6667-.5517,4.5114c-.2155,1.7587-.4512,3.6671-.7072,5.725s-.5208,4.1606-.7945,6.3076c-.4778,3.6549-.8442,6.5379-1.0991,8.649-.255,2.1112-.4053,3.6576-.4511,4.6393l.1558,1.8722 .7212.3479 2.3435-.2043c1.3712-.1338 3.1953-.3192 5.4722-.5563s4.8696-.5113 7.7781-.8232 5.9954-.647 9.261-1.0053z" fill="#b0f8ff"/>
 <path d="m208.7178,214.7782c1.535-2.8044 2.8632-5.254 3.9848-7.3488s2.0306-3.8243 2.7273-5.1886 1.1755-2.3527 1.4361-2.9652l.1109-.6789c-.2618.2765-.9906,1.345-2.1862,3.2056s-2.5294,3.9809-4.0016,6.3609-2.7544,4.4874-3.8464,6.3221-1.6653,2.8645-1.7201,3.0891l.0725.14 .1961.106 .2885.0671 .3491.0235 .4664-.2492 .6437-.6764 .7358-.9968 .7431-1.2104z" fill="#8cb5ff"/>
 <path d="m208.7178,214.7782c1.535-2.8044 2.8632-5.254 3.9848-7.3488s2.0306-3.8243 2.7273-5.1886 1.1755-2.3527 1.4361-2.9652l.1109-.6789c-.2618.2765-.9906,1.345-2.1862,3.2056s-2.5294,3.9809-4.0016,6.3609-2.7544,4.4874-3.8464,6.3221-1.6653,2.8645-1.7201,3.0891l.0725.14 .1961.106 .2885.0671 .3491.0235 .4664-.2492 .6437-.6764 .7358-.9968 .7431-1.2104z" fill="#8cb5ff"/>
 <path d="m211.1774,201.0822c1.0849-1.8599 2.2697-4.2549 3.5543-7.185s2.4905-5.9148 3.6174-8.9544 1.9961-5.6539 2.6076-7.8428 .7865-3.4722.5251-3.85c-.2639-.1201-1.872-.6128-4.8241-1.4782s-6.3636-1.8483-10.2344-2.949-7.3163-2.0644-10.3363-2.8909-4.7301-1.2609-5.13-1.3034l.3924,1.9495c.2946,1.2774.7183,3.0494 1.2711,5.316s1.1997,4.8946 1.941,7.884 1.5419,6.2074 2.4021,9.6535l6.2914,24.8031 1.9159-3.1328 1.0805-1.6966 1.4858-2.4588c.5473-.9187 1.1154-1.8807 1.7044-2.886l1.7358-2.9782z" fill="#8cb5ff"/>
 <path d="m211.1774,201.0822c1.0849-1.8599 2.2697-4.2549 3.5543-7.185s2.4905-5.9148 3.6174-8.9544 1.9961-5.6539 2.6076-7.8428 .7865-3.4722.5251-3.85c-.2639-.1201-1.872-.6128-4.8241-1.4782s-6.3636-1.8483-10.2344-2.949-7.3163-2.0644-10.3363-2.8909-4.7301-1.2609-5.13-1.3034l.3924,1.9495c.2946,1.2774.7183,3.0494 1.2711,5.316s1.1997,4.8946 1.941,7.884 1.5419,6.2074 2.4021,9.6535l6.2914,24.8031 1.9159-3.1328 1.0805-1.6966 1.4858-2.4588c.5473-.9187 1.1154-1.8807 1.7044-2.886l1.7358-2.9782z" fill="#8cb5ff"/>
 <path d="m123.67 196.45 22.55-14.033 3.5988-11.651 1.8386-5.9843c0.7191-2.3445 1.4946-4.8773 2.3264-7.5984s1.6706-5.4691 2.5159-8.2441 1.6475-5.4153 2.4066-7.9212l5.4628-18.123-11.055-25.761c-1.5322-3.5591-2.992-6.9282-4.3795-10.107s-2.6352-6.0184-3.7436-8.5175-2.0098-4.5083-2.7047-6.0272l-1.263-2.6364-1.3883-1.0013c-0.7493-0.3998-1.8529-0.8913-3.3108-1.4745s-3.3382-1.2834-5.6408-2.1008-5.0956-1.7773-8.3789-2.8799l-7.3241-2.4402-6.8218-2.2848-5.5546-1.8576c-1.5767-0.5253-2.7511-0.9116-3.5231-1.1586l-5.3335-1.8382-2.4596 1.3981c-0.3639 0.2011-1.2364 0.7259-2.6173 1.5745s-3.1451 1.9395-5.2922 3.2735-4.552 2.8296-7.2145 4.4871-5.4574 3.3959-8.3845 5.2153l-21.023 13.152-8.5438 29.981-8.4662 29.981 11.262 26.098c1.5637 3.6094 3.0285 6.9862 4.3944 10.13l3.6154 8.31c1.0443 2.3958 1.8659 4.2758 2.4648 5.6401l0.943 2.1206c0.2953 0.1404 2.797 1.0165 7.505 2.6282s10.161 3.466 16.36 5.5629 11.681 3.9429 16.447 5.5385 7.3553 2.4474 7.7671 2.5554l1.928-1.0526c1.2127-0.7145 2.87-1.7142 4.9718-2.9992s4.5229-2.7766 7.2631-4.475 5.6742-3.525 8.802-5.4798z" fill="#8cb5ff"/>
 <path d="m123.67 196.45 22.55-14.033 3.5988-11.651 1.8386-5.9843c0.7191-2.3445 1.4946-4.8773 2.3264-7.5984s1.6706-5.4691 2.5159-8.2441 1.6475-5.4153 2.4066-7.9212l5.4628-18.123-11.055-25.761c-1.5322-3.5591-2.992-6.9282-4.3795-10.107s-2.6352-6.0184-3.7436-8.5175-2.0098-4.5083-2.7047-6.0272l-1.263-2.6364-1.3883-1.0013c-0.7493-0.3998-1.8529-0.8913-3.3108-1.4745s-3.3382-1.2834-5.6408-2.1008-5.0956-1.7773-8.3789-2.8799l-7.3241-2.4402-6.8218-2.2848-5.5546-1.8576c-1.5767-0.5253-2.7511-0.9116-3.5231-1.1586l-5.3335-1.8382-2.4596 1.3981c-0.3639 0.2011-1.2364 0.7259-2.6173 1.5745s-3.1451 1.9395-5.2922 3.2735-4.552 2.8296-7.2145 4.4871-5.4574 3.3959-8.3845 5.2153l-21.023 13.152-8.5438 29.981-8.4662 29.981 11.262 26.098c1.5637 3.6094 3.0285 6.9862 4.3944 10.13l3.6154 8.31c1.0443 2.3958 1.8659 4.2758 2.4648 5.6401l0.943 2.1206c0.2953 0.1404 2.797 1.0165 7.505 2.6282s10.161 3.466 16.36 5.5629 11.681 3.9429 16.447 5.5385 7.3553 2.4474 7.7671 2.5554l1.928-1.0526c1.2127-0.7145 2.87-1.7142 4.9718-2.9992s4.5229-2.7766 7.2631-4.475 5.6742-3.525 8.802-5.4798z" fill="#d2d2ff"/>
 <path d="m16.6109,191.0367 1.1603-2.1821 .9369-1.8956 .6262-1.3908 .2282-.6675c-.0688-.2707-.7646-1.4947-2.0875-3.672s-2.8601-4.6545-4.6117-7.4317-3.3051-5.2011-4.6603-7.2716-2.0995-3.1343-2.233-3.1914c-.0127.2242.3395,1.9942 1.0566,5.31s1.5645,7.1423 2.5422,11.4799 1.8508,8.1513 2.6197,11.4412 1.1988,5.021 1.2897,5.1934l.3147-.4535 .6886-1.2326 .97-1.8201 1.1594-2.2156z" fill="#8cb5ff"/>
 <path d="m16.6109,191.0367 1.1603-2.1821 .9369-1.8956 .6262-1.3908 .2282-.6675c-.0688-.2707-.7646-1.4947-2.0875-3.672s-2.8601-4.6545-4.6117-7.4317-3.3051-5.2011-4.6603-7.2716-2.0995-3.1343-2.233-3.1914c-.0127.2242.3395,1.9942 1.0566,5.31s1.5645,7.1423 2.5422,11.4799 1.8508,8.1513 2.6197,11.4412 1.1988,5.021 1.2897,5.1934l.3147-.4535 .6886-1.2326 .97-1.8201 1.1594-2.2156z" fill="#8cb5ff"/>
 <path d="m223.7343,184.0463c.5667-1.4139 1.0887-2.7446 1.566-3.992s.8884-2.3546 1.2334-3.322l.7722-2.3124 .1825-.9628-.9288-.0582-1.1424,1.5534c-.4245.8034-.9089,1.9264-1.4531,3.369s-1.1646,3.2387-1.8609,5.3884c-.4499,1.356-.8802,2.6507-1.2909,3.884l-1.1137,3.3427-.8176,2.4543-.4025,1.2189-.0991.3835 .0247.1796 .1655-.0243 .3232-.2281 .6145-1.0874 1.1169-2.4078c.4429-.9936.9301-2.1198 1.4616-3.3787s1.081-2.5923 1.6485-4.0001z" fill="#8cb5ff"/>
 <path d="m223.7343,184.0463c.5667-1.4139 1.0887-2.7446 1.566-3.992s.8884-2.3546 1.2334-3.322l.7722-2.3124 .1825-.9628-.9288-.0582-1.1424,1.5534c-.4245.8034-.9089,1.9264-1.4531,3.369s-1.1646,3.2387-1.8609,5.3884c-.4499,1.356-.8802,2.6507-1.2909,3.884l-1.1137,3.3427-.8176,2.4543-.4025,1.2189-.0991.3835 .0247.1796 .1655-.0243 .3232-.2281 .6145-1.0874 1.1169-2.4078c.4429-.9936.9301-2.1198 1.4616-3.3787s1.081-2.5923 1.6485-4.0001z" fill="#8cb5ff"/>
 <path d="m48.1196,191.8134c-.2551-.4828-1.2498-2.6952-2.9839-6.6372s-3.7255-8.5032-5.9742-13.6835-4.2725-9.8693-6.0713-14.067-2.8906-6.7936-3.2751-7.7878l-.3111-.7811-.2359-.2254-.2213.3621-.2674.981c-.1879.8814-.532,2.9018-1.0323,6.0612s-1.0386,6.6742-1.6149,10.5443-1.0726,7.3121-1.4888,10.3258-.634,4.8157-.6537,5.4059l.3661,1.0315 1.6307,1.1044c.8209.413 2.0522.9365 3.6938,1.5704s3.8269,1.4438 6.5556,2.4297c1.6815.6256 3.262,1.2111 4.7416,1.7565s2.789,1.0258 3.9284,1.441l2.7003.9749 1.0571.3584-.005-.0219-.0922-.2305-.1796-.3957-.267-.517z" fill="#8cb5ff"/>
 <path d="m48.1196,191.8134c-.2551-.4828-1.2498-2.6952-2.9839-6.6372s-3.7255-8.5032-5.9742-13.6835-4.2725-9.8693-6.0713-14.067-2.8906-6.7936-3.2751-7.7878l-.3111-.7811-.2359-.2254-.2213.3621-.2674.981c-.1879.8814-.532,2.9018-1.0323,6.0612s-1.0386,6.6742-1.6149,10.5443-1.0726,7.3121-1.4888,10.3258-.634,4.8157-.6537,5.4059l.3661,1.0315 1.6307,1.1044c.8209.413 2.0522.9365 3.6938,1.5704s3.8269,1.4438 6.5556,2.4297c1.6815.6256 3.262,1.2111 4.7416,1.7565s2.789,1.0258 3.9284,1.441l2.7003.9749 1.0571.3584-.005-.0219-.0922-.2305-.1796-.3957-.267-.517z" fill="#b3b3ff"/>
 <path d="m23.9379,160.4342 2.7185-18.1233-4.4272-16.6216-4.505-16.6993-7.1198,21.981-7.0422,22.0068 8.5438,13.4889c1.186,1.8698 2.3012,3.6028 3.3455,5.1992s1.9703,2.983 2.7776,4.1602 1.4484,2.072 1.9232,2.6845l.7823.7719 .3128-1.7254c.1732-1.0292.398-2.4077.6743-4.1356s.5869-3.7002.9317-5.9171 .7062-4.5737 1.0845-7.0702z" fill="#8cb5ff"/>
 <path d="m23.9379,160.4342 2.7185-18.1233-4.4272-16.6216-4.505-16.6993-7.1198,21.981-7.0422,22.0068 8.5438,13.4889c1.186,1.8698 2.3012,3.6028 3.3455,5.1992s1.9703,2.983 2.7776,4.1602 1.4484,2.072 1.9232,2.6845l.7823.7719 .3128-1.7254c.1732-1.0292.398-2.4077.6743-4.1356s.5869-3.7002.9317-5.9171 .7062-4.5737 1.0845-7.0702z" fill="#b0f8ff"/>
 <path d="m154.8917,177.7808 1.4304-.898 1.2557-.7136 .9547-.4709 .5275-.1699 .7763-.2868 1.6672-.7844 2.3224-1.168c.8637-.4437 1.7779-.9228 2.7423-1.4373l3.1526-1.7152c1.1514-.6251 2.3325-1.2616 3.5433-1.9094s2.3807-1.2649 3.5094-1.8512 2.1457-1.0998 3.0507-1.5405l6.3431-3.2363-1.1651-2.2524-1.2326-2.2828c-.57-1.0156-1.226-2.1609-1.9681-3.4358s-1.4967-2.5545-2.2641-3.8387-1.4745-2.448-2.1211-3.4915l-.3665-.6266-.5461-.9689-.6529-1.1679-.6869-1.2238c-.7819-1.4849-1.6438-3.0458-2.5859-4.6825s-1.8557-3.1772-2.7411-4.6218-1.6341-2.6211-2.246-3.5296l-1.1003-1.4058-.5413,1.1898c-.2916.7795-.6679,1.8597-1.1287,3.2407s-.9794,2.9807-1.5558,4.7991-1.1841,3.7732-1.8229,5.8646l-1.9907,6.5875c-.6864,2.267-1.3572,4.479-2.0126,6.636s-1.2565,4.1327-1.8038,5.9273l-1.3645,4.4612c-.7674,2.5515-1.3977,4.6783-1.8908,6.3804s-.8661,3.0488-1.119,4.0405l-.449,2.1181 .1189.6134 .426-.1684 .8847-.4595 1.2197-.6829 1.4309-.8382z" fill="#8cb5ff"/>
 <path d="m154.8917,177.7808 1.4304-.898 1.2557-.7136 .9547-.4709 .5275-.1699 .7763-.2868 1.6672-.7844 2.3224-1.168c.8637-.4437 1.7779-.9228 2.7423-1.4373l3.1526-1.7152c1.1514-.6251 2.3325-1.2616 3.5433-1.9094s2.3807-1.2649 3.5094-1.8512 2.1457-1.0998 3.0507-1.5405l6.3431-3.2363-1.1651-2.2524-1.2326-2.2828c-.57-1.0156-1.226-2.1609-1.9681-3.4358s-1.4967-2.5545-2.2641-3.8387-1.4745-2.448-2.1211-3.4915l-.3665-.6266-.5461-.9689-.6529-1.1679-.6869-1.2238c-.7819-1.4849-1.6438-3.0458-2.5859-4.6825s-1.8557-3.1772-2.7411-4.6218-1.6341-2.6211-2.246-3.5296l-1.1003-1.4058-.5413,1.1898c-.2916.7795-.6679,1.8597-1.1287,3.2407s-.9794,2.9807-1.5558,4.7991-1.1841,3.7732-1.8229,5.8646l-1.9907,6.5875c-.6864,2.267-1.3572,4.479-2.0126,6.636s-1.2565,4.1327-1.8038,5.9273l-1.3645,4.4612c-.7674,2.5515-1.3977,4.6783-1.8908,6.3804s-.8661,3.0488-1.119,4.0405l-.449,2.1181 .1189.6134 .426-.1684 .8847-.4595 1.2197-.6829 1.4309-.8382z" fill="#b3b3ff"/>
 <path d="m226.401,158.2595c.6922-2.6379 1.235-4.8073 1.6287-6.5082s.6792-3.262.8568-4.683 .2884-3.0305.3325-4.8286 .0628-4.113.0558-6.945v-11.7543l-18.9259,18.8741-18.9258,18.8741 15.8449,4.4273c2.1833.6186 4.2327,1.1873 6.1482,1.706s3.6072.9651 5.0753,1.3393 2.6226.6541 3.4636.8395l1.3132.2059 .2819-1.0433 .6922-2.5458c.2896-1.0648.619-2.2775.9883-3.638l1.1703-4.32z" fill="#8cb5ff"/>
 <path d="m226.401,158.2595c.6922-2.6379 1.235-4.8073 1.6287-6.5082s.6792-3.262.8568-4.683 .2884-3.0305.3325-4.8286 .0628-4.113.0558-6.945v-11.7543l-18.9259,18.8741-18.9258,18.8741 15.8449,4.4273c2.1833.6186 4.2327,1.1873 6.1482,1.706s3.6072.9651 5.0753,1.3393 2.6226.6541 3.4636.8395l1.3132.2059 .2819-1.0433 .6922-2.5458c.2896-1.0648.619-2.2775.9883-3.638l1.1703-4.32z" fill="#8cb5ff"/>
 <path d="m230.4917,160.2012c.228-1.3556.4371-2.6299.627-3.8229s.3521-2.2488.4863-3.1675l.292-2.1772 .0446-.852-.2772.6602-.5805,1.9418c-.237.8366-.5033,1.814-.7989,2.9321s-.6065,2.3285-.9325,3.6312l-.9907,3.6663c-.3151,1.166-.6008,2.2191-.8572,3.159l-.6388,2.3095-.3353,1.1178-.0822.4049 .1437.252 .3717.1113 .6024-.0174 .7265-.5154 .6392-1.5299c.2098-.7208.439-1.7357.6877-3.0446s.5394-2.9953.8722-5.0592z" fill="#8cb5ff"/>
 <path d="m230.4917,160.2012c.228-1.3556.4371-2.6299.627-3.8229s.3521-2.2488.4863-3.1675l.292-2.1772 .0446-.852-.2772.6602-.5805,1.9418c-.237.8366-.5033,1.814-.7989,2.9321s-.6065,2.3285-.9325,3.6312l-.9907,3.6663c-.3151,1.166-.6008,2.2191-.8572,3.159l-.6388,2.3095-.3353,1.1178-.0822.4049 .1437.252 .3717.1113 .6024-.0174 .7265-.5154 .6392-1.5299c.2098-.7208.439-1.7357.6877-3.0446s.5394-2.9953.8722-5.0592z" fill="#8cb5ff"/>
 <path d="m227.98 119.22c-0.3613-0.2969-2.5934-2.1156-6.6963-5.456l-14.213-11.57-14.315-11.653-7.0021-5.7036-0.8645 0.8645c-0.4421 0.6897-1.0483 1.8007-1.8184 3.333s-1.7145 3.5058-2.833 5.9204-2.4213 5.2903-3.9082 8.6268l-8.5439 19.314 3.9612 6.7832c1.1173 1.9221 2.2679 3.9065 3.452 5.9532s2.3775 4.1185 3.5805 6.2153 2.3917 4.1816 3.566 6.2542 2.3104 4.0958 3.4083 6.0697l2.9514 5.2816 19.936-19.832c2.7488-2.7692 5.3046-5.3683 7.6676-7.797s4.4285-4.5763 6.1967-6.4427 3.1347-3.3408 4.0996-4.4232l1.3762-1.7387z" fill="#8cb5ff"/>
 <path d="m227.98 119.22c-0.3613-0.2969-2.5934-2.1156-6.6963-5.456l-14.213-11.57-14.315-11.653-7.0021-5.7036-0.8645 0.8645c-0.4421 0.6897-1.0483 1.8007-1.8184 3.333s-1.7145 3.5058-2.833 5.9204-2.4213 5.2903-3.9082 8.6268l-8.5439 19.314 3.9612 6.7832c1.1173 1.9221 2.2679 3.9065 3.452 5.9532s2.3775 4.1185 3.5805 6.2153 2.3917 4.1816 3.566 6.2542 2.3104 4.0958 3.4083 6.0697l2.9514 5.2816 19.936-19.832c2.7488-2.7692 5.3046-5.3683 7.6676-7.797s4.4285-4.5763 6.1967-6.4427 3.1347-3.3408 4.0996-4.4232l1.3762-1.7387z" fill="#b0f8ff"/>
 <path d="m234.1163,129.5729c.1048-1.8957.1753-3.4296.2116-4.6017l-.0141-2.6767-.2812-1.2448-.5894-.3055-.5741.4325-.3288,1.7456c-.0743.8568-.124,2.1004-.1493,3.731s-.037,3.7602-.0352,6.3889c.002,3.363.0485,5.7989.1404,7.3075l.3806,1.793c.1619-.3134.3487-1.5216.5604-3.6247s.438-5.0847.6791-8.9451z" fill="#8cb5ff"/>
 <path d="m234.1163,129.5729c.1048-1.8957.1753-3.4296.2116-4.6017l-.0141-2.6767-.2812-1.2448-.5894-.3055-.5741.4325-.3288,1.7456c-.0743.8568-.124,2.1004-.1493,3.731s-.037,3.7602-.0352,6.3889c.002,3.363.0485,5.7989.1404,7.3075l.3806,1.793c.1619-.3134.3487-1.5216.5604-3.6247s.438-5.0847.6791-8.9451z" fill="#8cb5ff"/>
 <path d="m15.7307,104.2262-.3285-.1307-.7848-.3515-1.1149-.5118-1.3188-.6113-3.4176-1.398-.4142,3.78c-.1994,1.6743-.4786,4.1931-.8378,7.5563s-.7282,6.8845-1.1072,10.5637-.6979,6.8299-.9567,9.4521-.3877,4.0292-.3864,4.2213l.4316-1.1355c.2829-.8007.6752-1.9357 1.1769-3.405s1.0833-3.1853 1.7447-5.1478 1.3734-4.0837 2.1356-6.3638c.7361-2.2545 1.4208-4.3685 2.0542-6.3419s1.1871-3.716 1.6611-5.2278 .8399-2.7027 1.0979-3.5725l.3649-1.3758z" fill="#8cb5ff"/>
 <path d="m15.7307,104.2262-.3285-.1307-.7848-.3515-1.1149-.5118-1.3188-.6113-3.4176-1.398-.4142,3.78c-.1994,1.6743-.4786,4.1931-.8378,7.5563s-.7282,6.8845-1.1072,10.5637-.6979,6.8299-.9567,9.4521-.3877,4.0292-.3864,4.2213l.4316-1.1355c.2829-.8007.6752-1.9357 1.1769-3.405s1.0833-3.1853 1.7447-5.1478 1.3734-4.0837 2.1356-6.3638c.7361-2.2545 1.4208-4.3685 2.0542-6.3419s1.1871-3.716 1.6611-5.2278 .8399-2.7027 1.0979-3.5725l.3649-1.3758z" fill="#8cb5ff"/>
 <path d="m31.5238,124.9385c.3816-1.3432.8466-2.9887 1.3949-4.9366l1.7832-6.3419 1.9482-6.9293c.6583-2.3395 1.2883-4.5725 1.89-6.6988l4.2461-15.1977-2.2525,2.149-1.6416,1.4243c-.7604.6433-1.6717,1.4037-2.7339,2.2812s-2.213,1.8207-3.4523,2.8297-2.5051,2.0324-3.797,3.0701c-1.3024,1.0561-2.51,2.0636-3.6226,3.0223s-2.0832,1.8229-2.9115,2.5927l-1.9163,1.8888-.6371.9106 .4219,1.428c.2383.8348.5497,1.9468.9341,3.3358s.8171,2.9735 1.2981,4.7533 .9858,3.6734 1.5142,5.6806 1.0492,3.8803 1.5429,5.6214 .9416,3.2719 1.3439,4.5923 .7337,2.3528.9944,3.0972l.4943,1.1359 .4098-.7743 .7326-2.0995c.2893-.8929.6063-1.9228.9511-3.0899s.6998-2.4155 1.0651-3.7452z" fill="#8cb5ff"/>
 <path d="m31.5238,124.9385c.3816-1.3432.8466-2.9887 1.3949-4.9366l1.7832-6.3419 1.9482-6.9293c.6583-2.3395 1.2883-4.5725 1.89-6.6988l4.2461-15.1977-2.2525,2.149-1.6416,1.4243c-.7604.6433-1.6717,1.4037-2.7339,2.2812s-2.213,1.8207-3.4523,2.8297-2.5051,2.0324-3.797,3.0701c-1.3024,1.0561-2.51,2.0636-3.6226,3.0223s-2.0832,1.8229-2.9115,2.5927l-1.9163,1.8888-.6371.9106 .4219,1.428c.2383.8348.5497,1.9468.9341,3.3358s.8171,2.9735 1.2981,4.7533 .9858,3.6734 1.5142,5.6806 1.0492,3.8803 1.5429,5.6214 .9416,3.2719 1.3439,4.5923 .7337,2.3528.9944,3.0972l.4943,1.1359 .4098-.7743 .7326-2.0995c.2893-.8929.6063-1.9228.9511-3.0899s.6998-2.4155 1.0651-3.7452z" fill="#b3b3ff"/>
 <path d="m236.317,120.9514-.1521-.0429-.1327.1658-.0938.3504-.0356.5105 .0692.5016 .0958.2298 .1299-.0324 .1711-.2847 .1157-.4188 .0332-.4065-.0542-.3435-.1465-.2293z" fill="#8cb5ff"/>
 <path d="m236.317,120.9514-.1521-.0429-.1327.1658-.0938.3504-.0356.5105 .0692.5016 .0958.2298 .1299-.0324 .1711-.2847 .1157-.4188 .0332-.4065-.0542-.3435-.1465-.2293z" fill="#8cb5ff"/>
 <path d="m174.0765,100.7827c1.0684-2.4115 2.0674-4.6807 2.9968-6.8076s1.747-4.0108 2.4531-5.6521 1.2584-2.9397 1.657-3.8949l.6084-1.5357-1.4495-.7014c-.9497-.3782-2.267-.8693-3.9519-1.4733s-3.6381-1.2893-5.8597-2.0559-4.6126-1.583-7.1729-2.4491l-18.5116-6.2655 6.8351,15.7414c2.9518,6.8309 5.367,12.409 7.2457,16.7341s3.335,7.6556 4.3694,9.9913 1.761,3.9347 2.18,4.797l.6776,1.1513 .6954-1.4397c.4241-.9183.9982-2.1806 1.7221-3.7869s1.5553-3.4625 2.494-5.5684 1.9424-4.3675 3.011-6.7846z" fill="#8cb5ff"/>
 <path d="m174.0765,100.7827c1.0684-2.4115 2.0674-4.6807 2.9968-6.8076s1.747-4.0108 2.4531-5.6521 1.2584-2.9397 1.657-3.8949l.6084-1.5357-1.4495-.7014c-.9497-.3782-2.267-.8693-3.9519-1.4733s-3.6381-1.2893-5.8597-2.0559-4.6126-1.583-7.1729-2.4491l-18.5116-6.2655 6.8351,15.7414c2.9518,6.8309 5.367,12.409 7.2457,16.7341s3.335,7.6556 4.3694,9.9913 1.761,3.9347 2.18,4.797l.6776,1.1513 .6954-1.4397c.4241-.9183.9982-2.1806 1.7221-3.7869s1.5553-3.4625 2.494-5.5684 1.9424-4.3675 3.011-6.7846z" fill="#b3b3ff"/>
 <path d="m234.4012,117.0678-.1445-1.0805-.3895-2.3597c-.1653-.9721-.355-2.0742-.5692-3.3063l-.6833-3.9204c-.2541-1.3564-.4918-2.65-.7132-3.8807s-.4162-2.3373-.5846-3.32l-.3952-2.3928-.1452-1.0992-.0356-.2722-.0938-.1776-.1328-.0562-.1521.0918-.0647,1.0053 .1101,2.4543c.0649,1.0282.1566,2.204.275,3.5271s.2619,2.7311.4305,4.2238c.1561,1.4925.3001,2.8944.432,4.206s.2468,2.4717.3447,3.4802l.2281,2.388 .0825.9293 .0866.1359 .2371.0971 .3535.0582 .4361.0194 .4212-.0554 .3459-.1549 .2342-.2375 .0862-.303z" fill="#8cb5ff"/>
 <path d="m234.4012,117.0678-.1445-1.0805-.3895-2.3597c-.1653-.9721-.355-2.0742-.5692-3.3063l-.6833-3.9204c-.2541-1.3564-.4918-2.65-.7132-3.8807s-.4162-2.3373-.5846-3.32l-.3952-2.3928-.1452-1.0992-.0356-.2722-.0938-.1776-.1328-.0562-.1521.0918-.0647,1.0053 .1101,2.4543c.0649,1.0282.1566,2.204.275,3.5271s.2619,2.7311.4305,4.2238c.1561,1.4925.3001,2.8944.432,4.206s.2468,2.4717.3447,3.4802l.2281,2.388 .0825.9293 .0866.1359 .2371.0971 .3535.0582 .4361.0194 .4212-.0554 .3459-.1549 .2342-.2375 .0862-.303z" fill="#8cb5ff"/>
 <path d="m228.524,112.8736-.0732-1.4612-.2019-2.5195c-.0865-.9871-.1877-2.0631-.3038-3.2282s-.2423-2.3609-.379-3.5874c-.2135-1.8072-.4387-3.4196-.6756-4.8371s-.5252-2.788-.8649-4.1113-.7704-2.7472-1.2921-4.2716-1.1741-3.2969-1.9572-5.3176c-.5152-1.3884-1.0058-2.7055-1.4716-3.9515l-1.2533-3.3496-.8941-2.3981-.394-1.0971-1.0364-.1198-2.75.6182c-1.2108.3298-2.7327.785-4.5657,1.3658s-3.994,1.2882-6.4831,2.1229c-1.9943.6522-3.8747,1.2768-5.6413,1.8738s-3.3371,1.1376-4.7116,1.6215-2.471.8818-3.2893,1.1941l-1.3742.5923 .6351.949c.5042.5401 1.2418,1.2529 2.2128,2.1384s2.1164,1.8928 3.4362,3.0219 2.7547,2.3289 4.3051,3.5996c1.5517,1.283 3.2169,2.6573 4.9956,4.123l5.3573,4.4143c1.7929,1.4772 3.4864,2.8742 5.0806,4.1911l4.1655,3.4531c1.1663.9512 2.2674,1.8434 3.3035,2.6764s1.9607,1.5699 2.7743,2.2104l1.9684,1.5211 .886.6084 .2079-.1521 .174-.424 .106-.6473 .004-.8219z" fill="#8cb5ff"/>
 <path d="m228.524,112.8736-.0732-1.4612-.2019-2.5195c-.0865-.9871-.1877-2.0631-.3038-3.2282s-.2423-2.3609-.379-3.5874c-.2135-1.8072-.4387-3.4196-.6756-4.8371s-.5252-2.788-.8649-4.1113-.7704-2.7472-1.2921-4.2716-1.1741-3.2969-1.9572-5.3176c-.5152-1.3884-1.0058-2.7055-1.4716-3.9515l-1.2533-3.3496-.8941-2.3981-.394-1.0971-1.0364-.1198-2.75.6182c-1.2108.3298-2.7327.785-4.5657,1.3658s-3.994,1.2882-6.4831,2.1229c-1.9943.6522-3.8747,1.2768-5.6413,1.8738s-3.3371,1.1376-4.7116,1.6215-2.471.8818-3.2893,1.1941l-1.3742.5923 .6351.949c.5042.5401 1.2418,1.2529 2.2128,2.1384s2.1164,1.8928 3.4362,3.0219 2.7547,2.3289 4.3051,3.5996c1.5517,1.283 3.2169,2.6573 4.9956,4.123l5.3573,4.4143c1.7929,1.4772 3.4864,2.8742 5.0806,4.1911l4.1655,3.4531c1.1663.9512 2.2674,1.8434 3.3035,2.6764s1.9607,1.5699 2.7743,2.2104l1.9684,1.5211 .886.6084 .2079-.1521 .174-.424 .106-.6473 .004-.8219z" fill="#8cb5ff"/>
 <path d="m21.0641,83.8504c.5343-2.2232 1.0402-4.332 1.5178-6.3261s.9059-3.7778 1.2848-5.3505 .6875-2.8384.9256-3.797l.4401-1.6658-.5275.824c-.3773.6972-.9156,1.7332-1.6149,3.1081s-1.5191,3.0046-2.4596,4.8896c-.9404,1.885-1.9609,3.9412-3.0615,6.1688l-7.9225,16.0779 3.2881,1.5017 1.3342.5595 1.1642.3822 .873.1833 .4604-.0376 .4822-1.4341c.253-.8828.5755-2.0801.9677-3.5919s.8311-3.2479 1.3171-5.2084 .9963-4.055 1.5308-6.2837z" fill="#8cb5ff"/>
 <path d="m21.0641,83.8504c.5343-2.2232 1.0402-4.332 1.5178-6.3261s.9059-3.7778 1.2848-5.3505 .6875-2.8384.9256-3.797l.4401-1.6658-.5275.824c-.3773.6972-.9156,1.7332-1.6149,3.1081s-1.5191,3.0046-2.4596,4.8896c-.9404,1.885-1.9609,3.9412-3.0615,6.1688l-7.9225,16.0779 3.2881,1.5017 1.3342.5595 1.1642.3822 .873.1833 .4604-.0376 .4822-1.4341c.253-.8828.5755-2.0801.9677-3.5919s.8311-3.2479 1.3171-5.2084 .9963-4.055 1.5308-6.2837z" fill="#8cb5ff"/>
 <path d="m32.6112,89.3651 11.5989-9.5018 7.1717-15.9486 2.8431-6.3576c.9105-2.0343 1.7384-3.8849 2.4838-5.5519s1.363-3.0516 1.8528-4.1538l.9499-2.1635 .9579-2.2784-1.9677.5438c-1.2262.3813-3.2204,1.0118-5.9827,1.8916l-8.791,2.8139c-3.0984.9963-5.765,1.8599-7.9997,2.5907s-3.4377,1.1381-3.6089,1.2217c-.1426.323-.7927,2.7854-1.9503,7.3873s-2.4719,9.9097-3.943,15.9238-2.7482,11.3009-3.8314,15.8607-1.6216,6.959-1.6153,7.198l1.0186-.7525c.6296-.4927 1.4854-1.174 2.5672-2.0437s2.326-1.8747 3.7323-3.0146l4.5138-3.6651z" fill="#8cb5ff"/>
 <path d="m32.6112,89.3651 11.5989-9.5018 7.1717-15.9486 2.8431-6.3576c.9105-2.0343 1.7384-3.8849 2.4838-5.5519s1.363-3.0516 1.8528-4.1538l.9499-2.1635 .9579-2.2784-1.9677.5438c-1.2262.3813-3.2204,1.0118-5.9827,1.8916l-8.791,2.8139c-3.0984.9963-5.765,1.8599-7.9997,2.5907s-3.4377,1.1381-3.6089,1.2217c-.1426.323-.7927,2.7854-1.9503,7.3873s-2.4719,9.9097-3.943,15.9238-2.7482,11.3009-3.8314,15.8607-1.6216,6.959-1.6153,7.198l1.0186-.7525c.6296-.4927 1.4854-1.174 2.5672-2.0437s2.326-1.8747 3.7323-3.0146l4.5138-3.6651z" fill="#b0f8ff"/>
 <path d="m226.8153,81.7015c-.5598-2.0684-1.0487-3.7927-1.4669-5.1728s-.7857-2.4727-1.1028-3.2772l-.86-1.7189-.7387-.4979-.4871.377 .1634,1.4353c.1719.6928.4788,1.6761.9208,2.9498s1.037,2.9141 1.7848,4.9209l1.43,3.877 1.2141,3.2946 .8693,2.3819 .3961,1.1392 .1626.3192 .1675.2731 .1577.1905 .1335.0716-.1448-.8313-.5672-2.2659c-.2517-.9658-.5508-2.0852-.8972-3.358s-.7248-2.6423-1.1351-4.1081z" fill="#8cb5ff"/>
 <path d="m226.8153,81.7015c-.5598-2.0684-1.0487-3.7927-1.4669-5.1728s-.7857-2.4727-1.1028-3.2772l-.86-1.7189-.7387-.4979-.4871.377 .1634,1.4353c.1719.6928.4788,1.6761.9208,2.9498s1.037,2.9141 1.7848,4.9209l1.43,3.877 1.2141,3.2946 .8693,2.3819 .3961,1.1392 .1626.3192 .1675.2731 .1577.1905 .1335.0716-.1448-.8313-.5672-2.2659c-.2517-.9658-.5508-2.0852-.8972-3.358s-.7248-2.6423-1.1351-4.1081z" fill="#8cb5ff"/>
 <path d="m183.2935,78.8018c.008-.1407.1712-1.2979.4886-3.4718s.7392-5.0253 1.2655-8.5543 1.1065-7.3967 1.7411-11.603 1.2732-8.412 1.9158-12.6175c.2411-1.5766.4597-3.053.6558-4.4293s.3605-2.5914.4931-3.6453l.2747-2.4948 .0004-.9778c-.3675-.0918-3.2879-.0521-8.7611.1194s-11.7989.4046-18.9772.6994-13.509.5815-18.9918.8597-8.4178.4782-8.8048.5999l-.0575.4567 .1222.9641 .2775,1.3281 .4086,1.5489 .5437,2.0385 .7379,2.638c.2686.9524.5404,1.9239.8155,2.9147l.7767,2.8686 .8455,2.9883c.3082,1.0874.624,2.1959.9475,3.3257s.636,2.2108.9377,3.2432l.8163,2.7407 1.7088,5.8254 19.0036,6.369c4.5039,1.5245 8.1403,2.7489 10.9091,3.6732s4.8705,1.6049 6.3048,2.0421l2.9017.7508 .7003-.2006z" fill="#8cb5ff"/>
 <path d="m183.2935,78.8018c.008-.1407.1712-1.2979.4886-3.4718s.7392-5.0253 1.2655-8.5543 1.1065-7.3967 1.7411-11.603 1.2732-8.412 1.9158-12.6175c.2411-1.5766.4597-3.053.6558-4.4293s.3605-2.5914.4931-3.6453l.2747-2.4948 .0004-.9778c-.3675-.0918-3.2879-.0521-8.7611.1194s-11.7989.4046-18.9772.6994-13.509.5815-18.9918.8597-8.4178.4782-8.8048.5999l-.0575.4567 .1222.9641 .2775,1.3281 .4086,1.5489 .5437,2.0385 .7379,2.638c.2686.9524.5404,1.9239.8155,2.9147l.7767,2.8686 .8455,2.9883c.3082,1.0874.624,2.1959.9475,3.3257s.636,2.2108.9377,3.2432l.8163,2.7407 1.7088,5.8254 19.0036,6.369c4.5039,1.5245 8.1403,2.7489 10.9091,3.6732s4.8705,1.6049 6.3048,2.0421l2.9017.7508 .7003-.2006z" fill="#b0f8ff"/>
 <path d="m201.2614,74.2709c2.0136-.6528 3.9089-1.2824 5.6862-1.8887s3.3555-1.1559 4.7347-1.6485 2.4785-.895 3.2978-1.2067l1.3754-.5636-.1331-.9863-.8151-2.2629c-.3743-.9384-.8288-2.0035-1.3637-3.1951s-1.1278-2.4524-1.7788-3.7824c-.9736-2.0009-1.8613-3.7387-2.663-5.2133s-1.6174-2.8362-2.4471-4.0846-1.7732-2.534-2.8306-3.8565-2.3285-2.8321-3.8135-4.5288c-1.015-1.1386-1.9576-2.172-2.8277-3.1004s-1.6364-1.7157-2.2986-2.3624l-1.5802-1.4111-.6723-.2459-.3349,1.9882c-.1878,1.1707-.4321,2.7356-.7331,4.6947s-.6391,4.1988-1.0146,6.719-.7686,5.2073-1.1796,8.0612c-.4172,2.8225-.8158,5.5045-1.1958,8.0459s-.7236,4.8228-1.0308,6.8444-.5601,3.6638-.7589,4.9268l-.3802,2.2933-.1246.6113-.0567.5118 .0211.3515 .1084.1306 1.2362-.3778c.7787-.2477 1.8445-.5921 3.1975-1.0332s2.9141-.9537 4.683-1.538 3.6664-1.2152 5.6926-1.8925z" fill="#8cb5ff"/>
 <path d="m201.2614,74.2709c2.0136-.6528 3.9089-1.2824 5.6862-1.8887s3.3555-1.1559 4.7347-1.6485 2.4785-.895 3.2978-1.2067l1.3754-.5636-.1331-.9863-.8151-2.2629c-.3743-.9384-.8288-2.0035-1.3637-3.1951s-1.1278-2.4524-1.7788-3.7824c-.9736-2.0009-1.8613-3.7387-2.663-5.2133s-1.6174-2.8362-2.4471-4.0846-1.7732-2.534-2.8306-3.8565-2.3285-2.8321-3.8135-4.5288c-1.015-1.1386-1.9576-2.172-2.8277-3.1004s-1.6364-1.7157-2.2986-2.3624l-1.5802-1.4111-.6723-.2459-.3349,1.9882c-.1878,1.1707-.4321,2.7356-.7331,4.6947s-.6391,4.1988-1.0146,6.719-.7686,5.2073-1.1796,8.0612c-.4172,2.8225-.8158,5.5045-1.1958,8.0459s-.7236,4.8228-1.0308,6.8444-.5601,3.6638-.7589,4.9268l-.3802,2.2933-.1246.6113-.0567.5118 .0211.3515 .1084.1306 1.2362-.3778c.7787-.2477 1.8445-.5921 3.1975-1.0332s2.9141-.9537 4.683-1.538 3.6664-1.2152 5.6926-1.8925z" fill="#8cb5ff"/>
 <path d="m70.1782,63.5782c2.6126-1.6285 5.0543-3.1579 7.325-4.5883s4.2682-2.6992 5.9924-3.8067 3.0728-1.9912 4.0458-2.6513l1.485-1.1222-.9785-.4895-2.6558-1.0186c-1.1298-.4152-2.4342-.881-3.9131-1.3973s-3.0624-1.0581-4.7505-1.6254l-12.3498-4.1166-7.2492,16.0779-2.8152,6.3031-2.3468,5.2668-1.6428,3.6889-.7035,1.57-.0611.4118 1.8638-.9619c1.1347-.6642 3.1686-1.9007 6.1016-3.7096s7.1505-4.4193 12.6527-7.8311z" fill="#8cb5ff"/>
 <path d="m70.1782,63.5782c2.6126-1.6285 5.0543-3.1579 7.325-4.5883s4.2682-2.6992 5.9924-3.8067 3.0728-1.9912 4.0458-2.6513l1.485-1.1222-.9785-.4895-2.6558-1.0186c-1.1298-.4152-2.4342-.881-3.9131-1.3973s-3.0624-1.0581-4.7505-1.6254l-12.3498-4.1166-7.2492,16.0779-2.8152,6.3031-2.3468,5.2668-1.6428,3.6889-.7035,1.57-.0611.4118 1.8638-.9619c1.1347-.6642 3.1686-1.9007 6.1016-3.7096s7.1505-4.4193 12.6527-7.8311z" fill="#b3b3ff"/>
 <path d="m221.7666,67.5653-1.3803-2.3799c-.6267-1.0406-1.2907-2.1212-1.9919-3.2416s-1.3101-2.073-1.8269-2.858l-.8851-1.2294 .0174.1901 .1606.5154 .2916.7581 .4106.9183 .5195,1.1878 .5874,1.3625 .5971,1.3818 .5485,1.246 .5296,1.0543 .5999.8551 .5854.5737 .4858.2095 .3977-.0376 .2787-.108 .1283-.1711-.0539-.227z" fill="#8cb5ff"/>
 <path d="m221.7666,67.5653-1.3803-2.3799c-.6267-1.0406-1.2907-2.1212-1.9919-3.2416s-1.3101-2.073-1.8269-2.858l-.8851-1.2294 .0174.1901 .1606.5154 .2916.7581 .4106.9183 .5195,1.1878 .5874,1.3625 .5971,1.3818 .5485,1.246 .5296,1.0543 .5999.8551 .5854.5737 .4858.2095 .3977-.0376 .2787-.108 .1283-.1711-.0539-.227z" fill="#8cb5ff"/>
 <path d="m135.4738,49.8822c-.6001-2.1176-1.1829-4.0978-1.7484-5.9407s-1.0851-3.4646-1.559-4.8654-.874-2.4965-1.1999-3.2876l-.6707-1.2076c-.385.0796-2.167.8913-5.346,2.4354s-6.8049,3.3428-10.8776,5.3964-7.642,3.885-10.7077,5.4937-4.6779,2.5176-4.8363,2.7266l1.0915.5109c.7153.2786 1.7086.6422 2.9798,1.0911s2.7467.9597 4.4264,1.5328 3.4902,1.1851 5.4314,1.8362c2.8237.9628 5.7929,1.9789 8.9075,3.0482s6.0538,2.0844 8.8177,3.0457 5.0316,1.7613 6.8031,2.4002 2.7261,1.0092 2.8637,1.1112l-.305-1.2116c-.2185-.7936-.529-1.8925-.9312-3.2966s-.8713-3.0288-1.407-4.8742-1.1131-3.827-1.7323-5.9447z" fill="#8cb5ff"/>
 <path d="m135.4738,49.8822c-.6001-2.1176-1.1829-4.0978-1.7484-5.9407s-1.0851-3.4646-1.559-4.8654-.874-2.4965-1.1999-3.2876l-.6707-1.2076c-.385.0796-2.167.8913-5.346,2.4354s-6.8049,3.3428-10.8776,5.3964-7.642,3.885-10.7077,5.4937-4.6779,2.5176-4.8363,2.7266l1.0915.5109c.7153.2786 1.7086.6422 2.9798,1.0911s2.7467.9597 4.4264,1.5328 3.4902,1.1851 5.4314,1.8362c2.8237.9628 5.7929,1.9789 8.9075,3.0482s6.0538,2.0844 8.8177,3.0457 5.0316,1.7613 6.8031,2.4002 2.7261,1.0092 2.8637,1.1112l-.305-1.2116c-.2185-.7936-.529-1.8925-.9312-3.2966s-.8713-3.0288-1.407-4.8742-1.1131-3.827-1.7323-5.9447z" fill="#b3b3ff"/>
 <path d="m111.4993,40.1732 17.7608-8.9321-3.8835-5.2817c-.5399-.7436-1.2062-1.6512-1.9989-2.7225l-2.5934-3.4847c-.9363-1.2518-1.8898-2.5201-2.8605-3.8051-.9707-1.2849-1.9039-2.5128-2.7998-3.6837l-6.3432-8.4144-20.9194,17.9939c-2.8859,2.5018-5.5755,4.8444-8.0689,7.0276s-4.6798,4.1082-6.5592,5.7751-3.3408,2.9772-4.3844,3.9306l-1.5445,1.4935c.228.1533 1.5891.6818 4.0834,1.5854s5.3748,1.9233 8.6417,3.0587 6.1734,2.1275 8.7195,2.9762 3.9847,1.2946 4.3164,1.3378l1.6497-.6991c.9985-.4578 2.3429-1.0922 4.0332-1.9029s3.6237-1.7493 5.8002-2.8156 4.4935-2.212 6.9508-3.437z" fill="#8cb5ff"/>
 <path d="m111.4993,40.1732 17.7608-8.9321-3.8835-5.2817c-.5399-.7436-1.2062-1.6512-1.9989-2.7225l-2.5934-3.4847c-.9363-1.2518-1.8898-2.5201-2.8605-3.8051-.9707-1.2849-1.9039-2.5128-2.7998-3.6837l-6.3432-8.4144-20.9194,17.9939c-2.8859,2.5018-5.5755,4.8444-8.0689,7.0276s-4.6798,4.1082-6.5592,5.7751-3.3408,2.9772-4.3844,3.9306l-1.5445,1.4935c.228.1533 1.5891.6818 4.0834,1.5854s5.3748,1.9233 8.6417,3.0587 6.1734,2.1275 8.7195,2.9762 3.9847,1.2946 4.3164,1.3378l1.6497-.6991c.9985-.4578 2.3429-1.0922 4.0332-1.9029s3.6237-1.7493 5.8002-2.8156 4.4935-2.212 6.9508-3.437z" fill="#b0f8ff"/>
 <path d="m61.7638,39.3189 .191-.6129 .2492-1.3969 .288-1.9842 .3075-2.3751 .2625-2.5579 .265-2.468 .2407-2.0846 .1897-1.4074 .3366-2.356-4.9192,4.6344c-.6773.6561-1.4798,1.4198-2.4074,2.2908s-1.9171,1.7957-2.9681,2.7739l-3.1477,2.9342c-1.0474.9778-2.0295,1.9016-2.9463,2.7714-3.08,2.839-5.3877,4.9816-6.9232,6.4278s-2.2656,2.3273-2.1902,2.6436l2.742-.3515c1.7526-.5507 4.3769-1.4033 7.8731-2.5579l4.7509-1.564c1.4857-.495 2.8039-.9403 3.9547-1.3357l2.7412-.9669 1.11-.4571z" fill="#8cb5ff"/>
 <path d="m61.7638,39.3189 .191-.6129 .2492-1.3969 .288-1.9842 .3075-2.3751 .2625-2.5579 .265-2.468 .2407-2.0846 .1897-1.4074 .3366-2.356-4.9192,4.6344c-.6773.6561-1.4798,1.4198-2.4074,2.2908s-1.9171,1.7957-2.9681,2.7739l-3.1477,2.9342c-1.0474.9778-2.0295,1.9016-2.9463,2.7714-3.08,2.839-5.3877,4.9816-6.9232,6.4278s-2.2656,2.3273-2.1902,2.6436l2.742-.3515c1.7526-.5507 4.3769-1.4033 7.8731-2.5579l4.7509-1.564c1.4857-.495 2.8039-.9403 3.9547-1.3357l2.7412-.9669 1.11-.4571z" fill="#8cb5ff"/>
 <path d="m98.3988,8.3798 1.9676-1.6311-4.0389,1.5276-2.5615.9292c-1.1297.4256-2.4464.9304-3.9499,1.5142s-3.105,1.2099-4.8043,1.8783l-5.1247,2.0215-12.4533,4.9708-.8025,6.8869-.35,2.8075-.2941,2.5648-.2116,2.0405-.1023,1.2346 .6513.2258 2.3649-1.5656c1.1253-.8581 2.6903-2.1275 4.6951-3.8083s4.552-3.8484 7.6417-6.5026c2.1516-1.8769 4.2093-3.6668 6.1733-5.3694l5.3285-4.6145c1.5885-1.3738 2.8954-2.5058 3.9208-3.3961l1.9499-1.7141z" fill="#8cb5ff"/>
 <path d="m98.3988,8.3798 1.9676-1.6311-4.0389,1.5276-2.5615.9292c-1.1297.4256-2.4464.9304-3.9499,1.5142s-3.105,1.2099-4.8043,1.8783l-5.1247,2.0215-12.4533,4.9708-.8025,6.8869-.35,2.8075-.2941,2.5648-.2116,2.0405-.1023,1.2346 .6513.2258 2.3649-1.5656c1.1253-.8581 2.6903-2.1275 4.6951-3.8083s4.552-3.8484 7.6417-6.5026c2.1516-1.8769 4.2093-3.6668 6.1733-5.3694l5.3285-4.6145c1.5885-1.3738 2.8954-2.5058 3.9208-3.3961l1.9499-1.7141z" fill="#8cb5ff"/>
 <path d="m164.9889,28.652c3.0949-.1365 5.9927-.2647 8.6935-.3847l7.145-.3241 4.8634-.2415 1.8487-.1371-.4652-.5133-1.4313-1.2634-2.1594-1.8314-2.6497-2.2172c-1.3818-1.1227-2.6427-2.099-3.7824-2.9289s-2.2567-1.573-3.3505-2.2298-2.2622-1.2867-3.5057-1.89-2.6596-1.2397-4.2484-1.9094c-1.0841-.4315-2.1571-.8647-3.2189-1.2998l-2.9787-1.2342-2.3912-1.0158-1.4567-.6444-.9017-.3435-.8168-.21-.6371-.0691-.3629.0788-.8588,1.0781-2.0506,2.4981c-.8553,1.0404-1.8285,2.2307-2.9196,3.5708s-2.2463,2.7724-3.4656,4.2966l-8.9581,10.7704 3.9094-.4142c.5486-.0594 1.6327-.1348 3.2521-.2261s3.6282-.1919 6.0264-.3014 5.0397-.2214 7.9245-.3354l8.9463-.3281z" fill="#8cb5ff"/>
 <path d="m164.9889,28.652c3.0949-.1365 5.9927-.2647 8.6935-.3847l7.145-.3241 4.8634-.2415 1.8487-.1371-.4652-.5133-1.4313-1.2634-2.1594-1.8314-2.6497-2.2172c-1.3818-1.1227-2.6427-2.099-3.7824-2.9289s-2.2567-1.573-3.3505-2.2298-2.2622-1.2867-3.5057-1.89-2.6596-1.2397-4.2484-1.9094c-1.0841-.4315-2.1571-.8647-3.2189-1.2998l-2.9787-1.2342-2.3912-1.0158-1.4567-.6444-.9017-.3435-.8168-.21-.6371-.0691-.3629.0788-.8588,1.0781-2.0506,2.4981c-.8553,1.0404-1.8285,2.2307-2.9196,3.5708s-2.2463,2.7724-3.4656,4.2966l-8.9581,10.7704 3.9094-.4142c.5486-.0594 1.6327-.1348 3.2521-.2261s3.6282-.1919 6.0264-.3014 5.0397-.2214 7.9245-.3354l8.9463-.3281z" fill="#8cb5ff"/>
 <path d="m140.885,17.8557 8.9322-10.7704-4.6344-.5437-2.92-.269c-1.2828-.1255-2.7755-.2742-4.4782-.4462l-5.4394-.5481c-1.9236-.1935-3.8581-.3852-5.8035-.5749-4.0058-.3979-7.0366-.675-9.0924-.8313s-3.297-.0573-3.7234.2973l.6845,2.2342c.8827,1.135 2.2597,2.7948 4.1311,4.9795 .6724.8159 1.3406,1.6324 2.0045,2.4495l1.8759,2.3305 1.5408,1.9665 .9996,1.3572c.5612.8315 1.2173,1.764 1.9681,2.7974s1.4919,2.033 2.223,2.9988l1.8491,2.3921 .8467.9769 .7601-.8531c.4789-.5589 1.1328-1.3328 1.9616-2.3217s1.782-2.1333 2.8597-3.4333 2.2291-2.696 3.4544-4.1882z" fill="#8cb5ff"/>
 <path d="m140.885,17.8557 8.9322-10.7704-4.6344-.5437-2.92-.269c-1.2828-.1255-2.7755-.2742-4.4782-.4462l-5.4394-.5481c-1.9236-.1935-3.8581-.3852-5.8035-.5749-4.0058-.3979-7.0366-.675-9.0924-.8313s-3.297-.0573-3.7234.2973l.6845,2.2342c.8827,1.135 2.2597,2.7948 4.1311,4.9795 .6724.8159 1.3406,1.6324 2.0045,2.4495l1.8759,2.3305 1.5408,1.9665 .9996,1.3572c.5612.8315 1.2173,1.764 1.9681,2.7974s1.4919,2.033 2.223,2.9988l1.8491,2.3921 .8467.9769 .7601-.8531c.4789-.5589 1.1328-1.3328 1.9616-2.3217s1.782-2.1333 2.8597-3.4333 2.2291-2.696 3.4544-4.1882z" fill="#8cb5ff"/>
 <path d="m88.6122,268.7857c2.3878.514 4.4586.9293 6.2125,1.2459s3.4274.5573 5.0207.7217 3.3429.2757 5.2489.3334 4.2049.0847 6.897.0808c2.926.0324 5.3264.0324 7.2011,0s3.5704-.1359 5.0871-.3106 3.201-.4596 5.0531-.8544 4.2184-.9385 7.0992-1.6311c2.2748-.5379 4.3936-1.077 6.3565-1.6173s3.869-1.1167 5.7182-1.729 3.7406-1.2955 5.6744-2.0494 4.0089-1.6134 6.2254-2.5785c2.805-1.1866 5.0965-2.1873 6.8743-3.0021s3.3388-1.6254 4.6826-2.4317 2.767-1.79 4.2698-2.9511 3.3817-2.6812 5.6365-4.5603c1.3311-1.0972 2.8033-2.3673 4.4167-3.8104s3.2653-2.9616 4.9556-4.5555 3.3163-3.1658 4.8779-4.7157 2.9563-2.9802 4.1838-4.291c2.0221-2.1147 3.6931-3.9144 5.013-5.3989s2.4666-2.8974 3.4402-4.2387 1.952-2.8546 2.9353-4.5398 2.1494-3.7858 3.4984-6.3018c.8512-1.5304 1.7736-3.2918 2.7675-5.2841s2.0013-4.0822 3.0223-6.2696 1.9977-4.3386 2.93-6.4539 1.7627-4.0612 2.4908-5.8375c1.164-2.8886 2.1144-5.3268 2.8512-7.3149s1.3442-3.826 1.822-5.5138 .9105-3.5259 1.2978-5.5139 .8134-4.4263 1.2783-7.3149c.307-1.753.6201-3.7599.9394-6.0206s.6274-4.6262.9248-7.0961 .5667-4.895.8082-7.2755 .4381-4.5671.5898-6.5596l1.1133-14.2398-2.4596-13.4889c-.3487-1.8806-.7613-3.935-1.2379-6.1631s-.983-4.4921-1.5194-6.7918-1.0688-4.4973-1.5971-6.5928-1.0187-3.9507-1.4709-5.566c-.7633-2.7056-1.4245-4.9402-1.9835-6.7036s-1.1352-3.3272-1.7286-4.6914-1.3233-2.8002-2.1897-4.3079-1.9888-3.3589-3.367-5.5531c-.8349-1.339-1.8221-2.8651-2.9616-4.5781s-2.3541-3.5022-3.6437-5.3671-2.5769-3.6943-3.8622-5.4884c-1.285-1.794-2.4907-3.4414-3.6169-4.9422-1.9371-2.5723-3.5387-4.6527-4.8047-6.2412s-2.4574-2.9407-3.5741-4.0567-2.4197-2.2514-3.909-3.4062-3.4259-2.5848-5.8096-4.2897c-2.3552-1.7272-4.318-3.1306-5.8884-4.2105s-3.0641-1.9979-4.4807-2.754-3.072-1.5125-4.9661-2.2687-4.3423-1.6742-7.3448-2.7541l-12.6345-4.6344-17.5537-1.6052-7.1781-.6622c-2.3571-.2193-4.5557-.4247-6.5956-.6161l-5.2752-.4948-3.2169-.2981-2.9406-.0797-2.8362.4519c-1.039.2673-2.3938.7076-4.0644,1.3208s-3.8789,1.4556-6.6251,2.5271l-5.3346,2.0757-5.8857,2.2966c-1.9928.7771-3.8948,1.5151-5.7059,2.214s-3.4098,1.3084-4.7959,1.8281l-10.1231,3.9871-17.6832,16.4922-17.709,16.4922-11.806,24.0522-11.832,24.0522-2.7185,27.5992-2.7961,27.7286 5.3852,23.6121c.7439,3.2863 1.4762,6.4324 2.1966,9.4383s1.3928,5.7272 2.0171,8.1639 1.1638,4.4445 1.6189,6.0233 .7893,2.5839 1.0025,3.0158c1.0373,2.0599 2.4642,4.5453 4.2808,7.456s3.8567,6.0036 6.1206,9.2789 4.5857,6.4895 6.9654,9.643 4.6512,6.0028 6.8148,8.5482c.7195.8751 1.4812,1.693 2.2852,2.454s2.0326,1.7293 3.6858,2.9054 4.1131,2.8241 7.38,4.9442 7.7228,4.977 13.3679,8.5706l14.2139,9.0616 10.9775,2.2525zm27.3921-1.7088l.8734.7468-.4301.373-2.2893.1108c-1.1193.003-2.6874-.0107-4.7043-.0396-1.5421.0008-3.0374-.0414-4.486-.1267s-2.9187-.219-4.4106-.4009-3.0738-.4175-4.7457-.7067-3.5021-.6372-5.4907-1.0441l-10.7187-2.1489-.5437-3.4434-.328-2.0199c-.1456-.8757-.3157-1.8864-.5102-3.032s-.4018-2.3585-.6217-3.6388-.4411-2.5605-.6631-3.8403l-.6254-3.5182-.5138-2.9188-.339-1.9916-.1011-.7366c.1838.0756 1.9295,1.2562 5.2372,3.5417s7.3074,5.0674 11.9993,8.3452 9.2064,6.4432 13.5432,9.4957 7.6261,5.3837 9.8683,6.9933zm16.0003-22.1105c-1.1023,2.582-2.1583,5.0461-3.168,7.3926s-1.9224,4.4627-2.7383,6.3489-1.4843,3.4294-2.0053,4.6302l-.9689,2.2372-.8284,1.9158-14.6799-10.2267c-2.0215-1.4453-4.1325-2.9464-6.3331-4.5033s-4.3626-3.0807-6.4859-4.5713-4.0799-2.859-5.8695-4.1052-3.2841-2.2814-4.4835-3.1053l-8.5956-6.1618 12.5051-10.0197c1.721-1.4075 3.3535-2.7285 4.8973-3.9628s2.9255-2.3256 4.1449-3.2735 2.203-1.6961 2.9507-2.2444l1.3148-.8754c.3764.006 2.4455.5584 6.2072,1.6565s8.0832,2.3939 12.9647,3.8873 9.1899,2.836 12.9257,4.028 5.766,1.8848 6.0907,2.0789l-.5704,1.5509c-.3928.9907-.947,2.3508-1.6626,4.0802s-1.5514,3.7238-2.5073,5.9832-1.9908,4.6792-3.1044,7.2597zm5.9288,19.7286c-1.1679.2744-2.3046.5476-3.4102.8196s-2.1242.5273-3.0559.7662l-2.3665.6205-1.3423.3827-.8504.2197-.4571-.0352-.127-.341 .14-.6979c.1632-.5093 1.0375-2.659 2.623-6.4491s3.4081-8.1066 5.4677-12.9492 3.8823-9.0978 5.4678-12.7648 2.4598-5.6324 2.623-5.8958c.0866.0196.805.7474 2.1554,2.1833s3.0461,3.2681 5.0874,5.4964 4.1418,4.5412 6.3011,6.9383 4.0915,4.5667 5.7962,6.5086l2.3302,2.6926-8.9581,5.2817c-1.9816,1.1716-3.6658,2.1341-5.0527,2.8872s-2.6649,1.3731-3.8342,1.8604-2.4182.9181-3.7468,1.2925-2.9255.7688-4.7906,1.1833zm-62.0852-4.0907l-.4717.2641-2.0785-1.0246c-1.0435-.604-2.6037-1.5653-4.6805-2.884s-4.836-3.0899-8.2776-5.3136c-2.6908-1.7158-4.9372-3.1742-6.7392-4.3751s-3.2094-2.1795-4.2222-2.9357l-2.0037-1.7075-.0837-.6906c.5897-.2097 2.124-.5832 4.6028-1.1206s5.2381-1.1066 8.2777-1.7079 5.6952-1.1027 7.967-1.5041 3.4953-.5711 3.6707-.5089c.0712.1649.3107,1.3723.7185,3.6222s.8673,4.8635 1.3786,7.8408 .958,5.6393 1.3399,7.9863 .5825,3.7001.6019,4.0592zm96.7266-14.4469l-2.0477,1.5134-1.7129,1.2343-1.1982.8313-.504.3046c-.2076-.116-1.346-1.2999-3.4151-3.5515s-4.4455-4.8747-7.1288-7.8695-5.0498-5.6647-7.0996-8.0102-3.1591-3.67-3.3278-3.9737l.1307-.2448 .5262-.2181 .8322-.1743 1.0482-.1137 1.2103-.0198 1.2104-.061 1.0745-.1049 .8026-.1509 2.1829-.2499 4.9305-.5462 6.9402-.7694c2.5869-.2876 5.3243-.5943 8.2121-.9199 2.8877-.2943 5.6255-.5813 8.2134-.8613s4.9042-.5355 6.9487-.7666l4.9536-.5675 2.2278-.2642-.6481,2.2084c-.9705,1.4875-2.3532,3.3135-4.1481,5.4778s-3.6599,4.254-5.5948,6.2691-3.5975,3.5425-4.9879,4.5822l-2.1384,1.5405c-.8022.5863-1.6428,1.2034-2.5219,1.8512l-2.5996,1.9094-2.3714,1.7152zm-124.9989-7.7671l-2.5425.5356-1.6809.157-.9866-.2412-.46-.6585-.7573-2.0704c-.4118-1.1647-1.0461-2.9859-1.903-5.4637s-1.9992-5.7943-3.4272-9.9492c-1.428-4.155-3.2048-9.3307-5.3302-15.527-.7882-2.3076-1.5193-4.4789-2.1934-6.5139s-1.2612-3.8357-1.7613-5.4022-.8834-2.8008-1.1497-3.7031l-.3585-1.4167c.1926-.0457 1.4143.2997 3.6651,1.036s4.8804,1.6327 7.8885,2.689 5.7445,2.0416 8.2089,2.9559 4.0066,1.5267 4.6263,1.837c.3257.3223 1.5643,2.3154 3.7157,5.9791s4.5817,7.8801 7.291,12.6491 5.0635,8.9724 7.0628,12.6102 3.0097,5.5921 3.0312,5.8626l-.856.2104-2.1667.4433-3.1667.6279-3.8561.7638-4.0462.8159-3.7792.7601-3.0898.6194-1.9782.3936zm156.8441-17.7867l-.468.7213-1.2763,1.5344-1.8929,2.1024c-.7177.775-1.4902,1.5834-2.3176,2.4252l-5.9547,6.2654 5.3334-6.5761c1.2761-1.5612 2.3419-2.8401 3.1974-3.8366l2.0324-2.2347 1.0616-.8172 .2847.4159zm-174.2684-6.8092c.86,2.5277 1.6595,4.8963 2.3985,7.1057s1.384,4.1613 1.9349,5.8557 .9743,3.033 1.2699,4.0159l.4033,1.5861c-.2366.0921-1.074-.7733-2.5122-2.5963s-3.1833-4.1852-5.2355-7.0867-4.1178-5.9239-6.1967-9.0673-3.8775-5.9894-5.3957-8.5382l-2.1748-3.6764 3.4175-6.2396 3.4175-6.369 1.2169,3.4434 .9466,2.7509 1.733,5.0033c.6869,1.9817 1.4394,4.1543 2.2574,6.5179s1.6578,4.7951 2.5194,7.2946zm56.0787,8.5179c-1.6355,1.3036-3.177,2.5266-4.6243,3.6692s-2.7355,2.1504-3.8645,3.0235-2.0337,1.5573-2.7141,2.0526l-1.1727.7565-.9916-1.1893c-.5439-.826-1.414-2.2807-2.6105-4.3641s-2.8319-4.9945-4.9066-8.7332-4.7013-8.5042-7.88-14.2964l-2.6667-4.8415 20.557,6.7833c2.8546.9523 5.5484,1.8553 8.0814,2.7088s4.7876,1.6141 6.7635,2.2816 3.5557,1.1982 4.7392,1.5922l2.0085.6408-.466.905-2.0777,2.0821c-.9442.8743-2.106,1.8969-3.4855,3.0677s-2.9427,2.4578-4.6894,3.8612zm56.8294-15.7413c-.2216,1.8195-.4385,3.564-.6508,5.2334s-.4107,3.1818-.5951,4.537-.3455,2.471-.4835,3.3475l-.3159,1.6655-.572.7856-2.0429-.1319c-1.0544-.2264-2.7387-.6943-5.0527-1.4037s-5.5145-1.7194-9.6013-3.03c-2.327-.705-4.526-1.3792-6.5972-2.0227s-3.9176-1.2206-5.5389-1.7314l-3.8982-1.2266-1.6747-.508c-.1177-.128.9331-.953 3.1525-2.475s5.187-3.4781 8.9027-5.8682 7.7593-4.9514 12.1309-7.6838 8.6505-5.373 12.8371-7.9217l2.7445-1.6311-.6214,3.4693-.3573,2.3965c-.152,1.0974-.3253,2.4043-.5198,3.9208s-.3985,3.1534-.612,4.911-.4249,3.5468-.634,5.3675zm27.2626,13.9031c-3.2656.3583-6.3526.6934-9.261,1.0053s-5.5011.5863-7.7781.8232-4.101.4225-5.4722.5563l-2.3435.2043-.7212-.3479-.1558-1.8722c.0458-.9817.1961-2.5281.4511-4.6393 .2549-2.1111.6213-4.9941 1.0991-8.649 .2737-2.147.5385-4.2495.7945-6.3076s.4917-3.9663.7072-5.725 .3993-3.2624.5517-4.5114l.3285-2.6667 .1675-1.3912 .1821-1.1752 .182-.8305 .1675-.3572 .7176-.4717 1.7808-.9717 2.5769-1.3309c.9694-.4918 2.0047-1.0082 3.106-1.5494l3.4338-1.7905 3.4725-1.8147 3.1133-1.6303 2.3561-1.2371c1.4258-.7871 2.8524-1.5624 4.2796-2.3257s2.8043-1.4908 4.1315-2.1825 2.5539-1.3237 3.6801-1.896 2.1012-1.0612 2.9252-1.4665l2.6667-1.1909 3.8318,15.0941c.5171,2.0989 1.0606,4.2814 1.6303,6.5474s1.1309,4.4882 1.6837,6.6664 1.0622,4.1852 1.5283,6.0207 .8543,3.3725 1.1643,4.6106c.2942,1.2202.5876,2.4188.8803,3.5959s.5665,2.2729.822,3.2877l.657,2.6226 .3851,1.6007 .4239,1.498-2.2751.9519c-1.5254.2884-4.4521.672-8.7801,1.1509s-10.6917,1.1773-19.091,2.0951zm38.3955-5.6959l-.7431,1.2104-.7358.9968-.6437.6764-.4664.2492-.3491-.0235-.2885-.0671-.1961-.106-.0725-.14c.0548-.2246.6281-1.2543 1.7201-3.0891s2.3741-3.9421 3.8464-6.3221 2.8061-4.5003 4.0016-6.3609 1.9244-2.9291 2.1862-3.2056l-.1109.6789c-.2606.6125-.7394,1.6009-1.4361,2.9652s-1.6058,3.0938-2.7273,5.1886-2.4498,4.5444-3.9848,7.3488zm2.4596-13.696l-1.7358,2.9782c-.589,1.0053-1.1571,1.9673-1.7044,2.886l-1.4858,2.4588-1.0805,1.6966-1.9159,3.1328-6.2914-24.8031c-.8602-3.4461-1.6609-6.664-2.4021-9.6535s-1.3883-5.6174-1.941-7.884-.9765-4.0386-1.2711-5.316l-.3924-1.9495c.3999.0425 2.1099.477 5.13,1.3034s6.4655,1.7901 10.3363,2.8909 7.2823,2.0837 10.2344,2.949 4.5602,1.3581 4.8241,1.4782c.2614.3778.0864,1.6611-.5251,3.85s-1.4807,4.8032-2.6076,7.8428-2.3327,6.0244-3.6174,8.9544-2.4694,5.3251-3.5543,7.185zm-87.5095-4.6343c-3.1278,1.9548-6.0618,3.7814-8.802,5.4798s-5.1613,3.19-7.2631,4.475-3.7591,2.2847-4.9718,2.9992l-1.928,1.0526c-.4118-.108-3.0008-.9598-7.7671-2.5554s-10.2486-3.4418-16.4469-5.5385-11.6515-3.9512-16.3595-5.5629-7.2097-2.4878-7.505-2.6282l-.943-2.1206c-.5989-1.3643-1.4205-3.2443-2.4648-5.6401l-3.6154-8.31c-1.3659-3.1442-2.8307-6.521-4.3944-10.1304l-11.2624-26.0976 8.4662-29.9811 8.5438-29.9811 21.023-13.1523 8.3845-5.2153 7.2145-4.4871c2.1471-1.334 3.9112-2.4251 5.2922-3.2735s2.2534-1.3734 2.6173-1.5745l2.4596-1.3981 5.3335,1.8382c.772.247 1.9464.6333 3.5231,1.1586s3.4283,1.1445 5.5546,1.8576l6.8218,2.2848 7.3241,2.4402c3.2833,1.1026 6.0762,2.0626 8.3789,2.8799s4.1828,1.5176 5.6408,2.1008 2.5615,1.0747 3.3108,1.4745l1.3883,1.0013 1.263,2.6364c.6949,1.5189 1.5965,3.528 2.7047,6.0272s2.3562,5.3383 3.7436,8.5175 2.8473,6.5483 4.3795,10.1074l11.0552,25.761-5.4628,18.1233c-.7591,2.5059-1.5613,5.1463-2.4066,7.9212l-2.5159,8.2441-2.3264,7.5984-1.8386,5.9843-3.5988,11.6507-22.5505,14.0327zm-107.057-5.4112l-1.1594,2.2156-.97,1.8201-.6886,1.2326-.3147.4535c-.0909-.1724-.5208-1.9036-1.2897-5.1934s-1.6421-7.1036-2.6197-11.4412-1.8251-8.1642-2.5422-11.4799-1.0693-5.0858-1.0566-5.31c.1335.0571.8778,1.1209 2.233,3.1914s2.9087,4.4943 4.6603,7.2716 3.2889,5.2544 4.6117,7.4317 2.0187,3.4013 2.0875,3.672l-.2282.6675-.6262,1.3908-.9369,1.8956-1.1603,2.1821zm207.1234-6.9904c-.5675,1.4078-1.117,2.7412-1.6485,4.0001s-1.0187,2.3851-1.4616,3.3787l-1.1169,2.4078-.6145,1.0874-.3232.2281-.1655.0243-.0247-.1796 .0991-.3835 .4025-1.2189 .8176-2.4543 1.1137-3.3427c.4107-1.2333.841-2.528 1.2909-3.884 .6963-2.1497 1.3166-3.9458 1.8609-5.3884s1.0286-2.5656 1.4531-3.369l1.1424-1.5534 .9288.0582-.1825.9628-.7722,2.3124c-.345.9674-.7561,2.0747-1.2334,3.322s-.9993,2.5781-1.566,3.992zm-175.6147,7.7671l.267.517 .1796.3957 .0922.2305 .005.0219-1.0571-.3584-2.7003-.9749-3.9284-1.441-4.7416-1.7565c-2.7287-.9859-4.9139-1.7957-6.5556-2.4297s-2.8729-1.1574-3.6938-1.5704l-1.6307-1.1044-.3661-1.0315c.0197-.5902.2376-2.3922.6537-5.4059s.9124-6.4557 1.4888-10.3258 1.1146-7.3849 1.6149-10.5443 .8444-5.1798 1.0323-6.0612l.2674-.981 .2213-.3621 .2359.2254 .3111.7811c.3845.9942 1.4763,3.5901 3.2751,7.7878s3.8226,8.8867 6.0713,14.067 4.2401,9.7415 5.9742,13.6835 2.7288,6.1544 2.9839,6.6372zm-24.1817-31.3792c-.3783,2.4965-.7398,4.8532-1.0845,7.0702s-.6553,4.1893-.9317,5.9171-.5011,3.1064-.6743,4.1356l-.3128,1.7254-.7823-.7719c-.4748-.6125-1.1159-1.5073-1.9232-2.6845s-1.7332-2.564-2.7776-4.1602-2.1595-3.3294-3.3455-5.1992l-8.5438-13.4889 7.0422-22.0068 7.1198-21.981 4.505,16.6993 4.4272,16.6216-2.7185,18.1233zm130.9538,17.3466l-1.4309.8382-1.2197.6829-.8847.4595-.426.1684-.1189-.6134 .449-2.1181c.2529-.9917.6259-2.3385 1.119-4.0405s1.1234-3.8289 1.8908-6.3804l1.3645-4.4612c.5473-1.7946 1.1486-3.7704 1.8038-5.9273l2.0126-6.636c.6864-2.2671 1.35-4.463 1.9907-6.5875 .6388-2.0914 1.2464-4.0463 1.8229-5.8646s1.095-3.4181 1.5558-4.7991 .8371-2.4612 1.1287-3.2407l.5413-1.1898 1.1003,1.4058c.6119.9085 1.3606,2.0851 2.246,3.5296s1.7991,2.9852 2.7411,4.6218 1.804,3.1976 2.5859,4.6825l.6869,1.2238 .6529,1.1679 .5461.9689 .3665.6266c.6466,1.0435 1.3536,2.2074 2.1211,3.4915s1.5221,2.5638 2.2641,3.8387 1.3981,2.4202 1.9681,3.4358l1.2326,2.2828 1.1651,2.2524-6.3431,3.2363c-.905.4407-1.9219.9542-3.0507,1.5405s-2.2985,1.2034-3.5094,1.8512-2.3919,1.2843-3.5433,1.9094l-3.1526,1.7152c-.9644.5145-1.8786.9936-2.7423,1.4373l-2.3224,1.168-1.6672.7844-.7763.2868-.5275.1699-.9547.4709-1.2557.7136-1.4304.898zm71.5093-19.5213l-1.1703,4.32-.9883,3.638-.6922,2.5458-.2819,1.0433-1.3132-.2059c-.841-.1854-1.9955-.4652-3.4636-.8395s-3.1599-.8207-5.0753-1.3393-3.9649-1.0874-6.1482-1.706l-15.8449-4.4273 18.9258-18.8741 18.9259-18.8741v11.7543c.007,2.832-.0117,5.147-.0558,6.945s-.1549,3.4076-.3325,4.8286-.4632,2.982-.8568,4.683-.9365,3.8703-1.6287,6.5082zm4.0907,1.9417c-.3328,2.0639-.6235,3.7502-.8722,5.0592s-.4779,2.3238-.6877,3.0446l-.6392,1.5299-.7265.5154-.6024.0174-.3717-.1113-.1437-.252 .0822-.4049 .3353-1.1178 .6388-2.3095c.2564-.9399.5421-1.993.8572-3.159l.9907-3.6663c.326-1.3027.6368-2.513.9325-3.6312s.5619-2.0955.7989-2.9321l.5805-1.9418 .2772-.6602-.0446.852-.292,2.1772c-.1342.9187-.2963,1.9746-.4863,3.1675s-.399,2.4673-.627,3.8229zm-2.5114-40.9845l-1.3762,1.7387c-.9649,1.0824-2.3314,2.5568-4.0996,4.4232s-3.8338,4.014-6.1967,6.4427-4.9188,5.0278-7.6676,7.797l-19.9357,19.8321-2.9514-5.2816c-1.0979-1.9739-2.234-3.9971-3.4083-6.0697s-2.363-4.1573-3.566-6.2542-2.3965-4.1686-3.5805-6.2153-2.3347-4.0311-3.452-5.9532l-3.9612-6.7832 8.5439-19.3143c1.4869-3.3365 2.7897-6.2121 3.9082-8.6268s2.0628-4.3881 2.833-5.9204 1.3763-2.6433 1.8184-3.333l.8645-.8645c.4972.4071 2.8312,2.3083 7.0021,5.7036l14.3154,11.6527 14.2134,11.5702 6.6963,5.456zm6.136,10.3562c-.2411,3.8604-.4675,6.8421-.6791,8.9451s-.3985,3.3113-.5604,3.6247l-.3806-1.793c-.0919-1.5086-.1387-3.9445-.1404-7.3075-.002-2.6287.01-4.7583.0352-6.3889s.075-2.8742.1493-3.731l.3288-1.7456 .5741-.4325 .5894.3055 .2812,1.2448 .0141,2.6767c-.0363,1.1721-.1068,2.706-.2116,4.6017zm-218.3856-25.3467l-.3649,1.3758c-.258.8698-.624,2.0606-1.0979,3.5725s-1.0277,3.2544-1.6611,5.2278-1.3181,4.0874-2.0542,6.3419c-.7622,2.2801-1.4741,4.4013-2.1356,6.3638s-1.243,3.6784-1.7447,5.1478-.894,2.6043-1.1769,3.405l-.4316,1.1355c-.001-.1921.1275-1.5992.3864-4.2213s.5777-5.7729.9567-9.4521 .7481-7.2004 1.1072-10.5637 .6384-5.882.8378-7.5563l.4142-3.78 3.4176,1.398 1.3188.6113 1.1149.5118 .7848.3515 .3285.1307zm15.7931,20.7123c-.3653,1.3297-.7204,2.5781-1.0651,3.7452s-.6618,2.197-.9511,3.0899l-.7326,2.0995-.4098.7743-.4943-1.1359c-.2607-.7444-.5922-1.7768-.9944-3.0972s-.8502-2.8512-1.3439-4.5923-1.008-3.6149-1.5429-5.6214-1.0331-3.9007-1.5142-5.6806-.9138-3.3642-1.2981-4.7533-.6958-2.501-.9341-3.3358l-.4219-1.428 .6371-.9106 1.9163-1.8888c.8283-.7698 1.7988-1.6341 2.9115-2.5927s2.3202-1.9662 3.6226-3.0223c1.2919-1.0377 2.5576-2.061 3.797-3.0701s2.3901-1.9522 3.4523-2.8297 1.9735-1.6379 2.7339-2.2812l1.6416-1.4243 2.2525-2.149-4.2461,15.1977c-.6017,2.1263-1.2317,4.3593-1.89,6.6988l-1.9482,6.9293-1.7832,6.3419c-.5483,1.9479-1.0133,3.5934-1.3949,4.9366zm204.7932-3.9871l.1465.2293 .0542.3435-.0332.4065-.1157.4188-.1711.2847-.1299.0324-.0958-.2298-.0692-.5016 .0356-.5105 .0938-.3504 .1327-.1658 .1521.0429zm-62.2405-20.1687c-1.0686,2.4171-2.0722,4.6786-3.011,6.7846s-1.77,3.962-2.494,5.5684-1.298,2.8686-1.7221,3.7869l-.6954,1.4397-.6776-1.1513c-.419-.8623-1.1457-2.4613-2.18-4.797s-2.4908-5.6661-4.3694-9.9913-4.2939-9.9032-7.2457-16.7341l-6.8351-15.7414 18.5116,6.2655c2.5603.8661 4.9512,1.6825 7.1729,2.4491s4.1749,1.4519 5.8597,2.0559 3.0022,1.0951 3.9519,1.4733l1.4495.7014-.6084,1.5357c-.3986.9552-.9509,2.2535-1.657,3.8949s-1.5238,3.5254-2.4531,5.6521-1.9284,4.3961-2.9968,6.8076zm60.3247,16.2851l-.0862.303-.2342.2375-.3459.1549-.4212.0554-.4361-.0194-.3535-.0582-.2371-.0971-.0866-.1359-.0825-.9293-.2281-2.388c-.0979-1.0085-.2128-2.1686-.3447-3.4802s-.2759-2.7135-.432-4.206c-.1686-1.4927-.3121-2.9006-.4305-4.2238s-.2101-2.4989-.275-3.5271l-.1101-2.4543 .0647-1.0053 .1521-.0918 .1328.0562 .0938.1776 .0356.2722 .1452,1.0992 .3952,2.3928c.1684.9827.3633,2.0894.5846,3.32s.4591,2.5243.7132,3.8807l.6833,3.9204c.2142,1.2321.4039,2.3342.5692,3.3063l.3895,2.3597 .1445,1.0805zm-5.8772-4.1942l-.004.8219-.106.6473-.174.424-.2079.1521-.886-.6084-1.9684-1.5211c-.8136-.6405-1.7384-1.3773-2.7743-2.2104s-2.1372-1.7252-3.3035-2.6764c-1.1828-.9852-2.5713-2.1363-4.1655-3.4531l-5.0806-4.1911-5.3573-4.4143-4.9956-4.123c-1.5504-1.2707-2.9854-2.4705-4.3051-3.5996s-2.4652-2.1364-3.4362-3.0219-1.7086-1.5983-2.2128-2.1384l-.6351-.949 1.3742-.5923c.8183-.3123 1.9147-.7104 3.2893-1.1941s2.9451-1.0243 4.7116-1.6215 3.647-1.2216 5.6413-1.8738c2.4891-.8347 4.6501-1.5423 6.4831-2.1229s3.3549-1.036 4.5657-1.3658l2.75-.6182 1.0364.1198 .394,1.0971 .8941,2.3981 1.2533,3.3496c.4658,1.246.9564,2.5631 1.4716,3.9515 .7831,2.0207 1.4355,3.7933 1.9572,5.3176s.9524,2.9483 1.2921,4.2716 .628,2.6937.8649,4.1113 .4621,3.0299.6756,4.8371c.1367,1.2265.263,2.4223.379,3.5874s.2173,2.2411.3038,3.2282l.2019,2.5195 .0732,1.4612zm-207.4599-29.0232c-.5345,2.2287-1.0448,4.3233-1.5308,6.2837s-.925,3.6966-1.3171,5.2084-.7147,2.7091-.9677,3.5919l-.4822,1.4341-.4604.0376-.873-.1833-1.1642-.3822-1.3342-.5595-3.2881-1.5017 7.9225-16.0779c1.1006-2.2276 2.1211-4.2838 3.0615-6.1688 .9405-1.885 1.7603-3.5149 2.4596-4.8896s1.2376-2.4109 1.6149-3.1081l.5275-.824-.4401,1.6658c-.2381.9586-.5466,2.2243-.9256,3.797s-.8072,3.3562-1.2848,5.3505l-1.5178,6.3261zm11.5471,5.5147c-1.6029,1.3034-3.1075,2.5251-4.5138,3.6651l-3.7323,3.0146c-1.0818.8697-1.9376,1.551-2.5672,2.0437l-1.0186.7525c-.006-.239.5322-2.6383 1.6153-7.198s2.3603-9.8467 3.8314-15.8607 2.7855-11.322 3.943-15.9238 1.8077-7.0643 1.9503-7.3873c.1712-.0836 1.3742-.4909 3.6089-1.2217s4.9013-1.5944 7.9997-2.5907 6.0288-1.9341 8.791-2.8139 4.7565-1.5103 5.9827-1.8916l1.9677-.5438-.9579,2.2784-.9499,2.1635c-.4898,1.1022-1.1074,2.4868-1.8528,4.1538l-2.4838,5.5519c-.9105,2.0343-1.8582,4.1535-2.8431,6.3576l-7.1717,15.9486-11.5989,9.5018zm194.2041-7.6636c.4103,1.4658.7887,2.8352 1.1351,4.1081s.6455,2.3922.8972,3.358l.5672,2.2659 .1448.8313-.1335-.0716-.1577-.1905-.1675-.2731-.1626-.3192-.3961-1.1392-.8693-2.3819-1.2141-3.2946-1.43-3.877c-.7478-2.0068-1.3428-3.6471-1.7848-4.9209s-.7489-2.257-.9208-2.9498l-.1634-1.4353 .4871-.377 .7387.4979 .86,1.7189c.3171.8045.6847,1.8969 1.1028,3.2772s.9071,3.1044 1.4669,5.1728zm-43.5218-2.8997l-.7003.2006-2.9017-.7508c-1.4343-.4372-3.5359-1.1179-6.3048-2.0421s-6.4052-2.1487-10.9091-3.6732l-19.0036-6.369-1.7088-5.8254-.8163-2.7407c-.3017-1.0324-.6142-2.1134-.9377-3.2432s-.6393-2.2383-.9475-3.3257l-.8455-2.9883-.7767-2.8686c-.2751-.9908-.5469-1.9623-.8155-2.9147l-.7379-2.638-.5437-2.0385-.4086-1.5489-.2775-1.3281-.1222-.9641 .0575-.4567c.387-.1217 3.3219-.3217 8.8048-.5999s11.8134-.5648 18.9918-.8597 13.5041-.528 18.9772-.6994 8.3936-.2112 8.7611-.1194l-.0004.9778-.2747,2.4948c-.1326,1.0539-.2969,2.269-.4931,3.6453s-.4147,2.8527-.6558,4.4293c-.6426,4.2055-1.2812,8.4113-1.9158,12.6175s-1.215,8.0739-1.7411,11.603-.9481,6.3805-1.2655,8.5543-.4802,3.3311-.4886,3.4718zm17.9679-4.5309c-2.0262.6773-3.9237,1.3082-5.6926,1.8925s-3.3299,1.0969-4.683,1.538-2.4188.7855-3.1975,1.0332l-1.2362.3778-.1084-.1306-.0211-.3515 .0567-.5118 .1246-.6113 .3802-2.2933c.1988-1.263.4518-2.9053.7589-4.9268s.6508-4.3031 1.0308-6.8444 .7786-5.2234 1.1958-8.0459c.411-2.8539.8042-5.541 1.1796-8.0612s.7137-4.7598 1.0146-6.719 .5453-3.524.7331-4.6947l.3349-1.9882 .6723.2459 1.5802,1.4111c.6622.6467 1.4284,1.4342 2.2986,2.3624s1.8127,1.9618 2.8277,3.1004c1.485,1.6967 2.7562,3.2063 3.8135,4.5288s2.001,2.608 2.8306,3.8565 1.6453,2.61 2.4471,4.0846 1.6894,3.2124 2.663,5.2133c.651,1.33 1.2439,2.5908 1.7788,3.7824s.9894,2.2567 1.3637,3.1951l.8151,2.2629 .1331.9863-1.3754.5636c-.8193.3117-1.9186.7139-3.2978,1.2067s-2.9574,1.0421-4.7347,1.6485-3.6726,1.2359-5.6862,1.8887zm-131.0832-10.6927-12.6527,7.8311c-2.933,1.8089-4.9669,3.0454-6.1016,3.7096l-1.8638.9619 .0611-.4118 .7035-1.57 1.6428-3.6889 2.3468-5.2668 2.8152-6.3031 7.2492-16.0779 12.3498,4.1166c1.6881.5673 3.2716,1.1091 4.7505,1.6254s2.7833.9821 3.9131,1.3973l2.6558,1.0186 .9785.4895-1.485,1.1222c-.973.6601-2.3216,1.5439-4.0458,2.6513s-3.7217,2.3764-5.9924,3.8067-4.7124,2.9598-7.325,4.5883zm151.5884,3.9871l.0539.227-.1283.1711-.2787.108-.3977.0376-.4858-.2095-.5854-.5737-.5999-.8551-.5296-1.0543-.5485-1.246-.5971-1.3818-.5874-1.3625-.5195-1.1878-.4106-.9183-.2916-.7581-.1606-.5154-.0174-.1901 .8851,1.2294c.5168.785 1.1257,1.7377 1.8269,2.858s1.3652,2.201 1.9919,3.2416l1.3803,2.3799zm-86.2928-17.6831c.6192,2.1177 1.1966,4.0992 1.7323,5.9447s1.0047,3.4701 1.407,4.8742 .7127,2.503.9312,3.2966l.305,1.2116c-.1376-.102-1.0921-.4724-2.8637-1.1112s-4.0392-1.4389-6.8031-2.4002-5.7031-1.9765-8.8177-3.0457-6.0838-2.0854-8.9075-3.0482c-1.9412-.6511-3.7516-1.2632-5.4314-1.8362s-3.1552-1.084-4.4264-1.5328-2.2645-.8125-2.9798-1.0911l-1.0915-.5109c.1584-.209 1.7705-1.1179 4.8363-2.7266s6.6349-3.4399 10.7077-5.4937 7.6986-3.8524 10.8776-5.3964 4.961-2.3558 5.346-2.4354l.6707,1.2076c.3259.7911.7259,1.8869 1.1999,3.2876s.9936,3.0226 1.559,4.8654 1.1483,3.8231 1.7484,5.9407zm-23.9745-9.709c-2.4573,1.225-4.7742,2.3706-6.9508,3.437s-4.1099,2.0049-5.8002,2.8156-3.0347,1.4451-4.0332,1.9029l-1.6497.6991c-.3317-.0432-1.7705-.4891-4.3164-1.3378s-5.4526-1.8408-8.7195-2.9762-6.1475-2.155-8.6417-3.0587-3.8554-1.4321-4.0834-1.5854l1.5445-1.4935c1.0436-.9534 2.505-2.2636 4.3844-3.9306s4.0658-3.592 6.5592-5.7751 5.183-4.5258 8.0689-7.0276l20.9194-17.9939 6.3432,8.4144c.8959,1.1709 1.8291,2.3988 2.7998,3.6837s1.9242,2.5533 2.8605,3.8051 1.8008,2.4133 2.5934,3.4847 1.459,1.9789 1.9989,2.7225l3.8835,5.2817-17.7608,8.9321zm-49.7355-.8543l-1.11.4571-2.7412.9669c-1.1508.3954-2.469.8407-3.9547,1.3357s-3.0694,1.0164-4.7509,1.564c-3.4962,1.1546-6.1205,2.0072-7.8731,2.5579l-2.742.3515c-.0754-.3163.6547-1.1975 2.1902-2.6436s3.8432-3.5888 6.9232-6.4278c.9168-.8698 1.8989-1.7936 2.9463-2.7714s2.0966-1.9559 3.1477-2.9342 2.0404-1.9028 2.9681-2.7739 1.7301-1.6347 2.4074-2.2908l4.9192-4.6344-.3366,2.356-.1897,1.4074-.2407,2.0846-.265,2.468-.2625,2.5579-.3075,2.3751-.288,1.9842-.2492,1.3969-.191.6129zm36.635-30.9391l-1.9499,1.7141-3.9208,3.3961c-1.5884,1.3737-3.3646,2.9119-5.3285,4.6145s-4.0217,3.4925-6.1733,5.3694c-3.0897,2.6542-5.637,4.8217-7.6417,6.5026s-3.5698,2.9502-4.6951,3.8083l-2.3649,1.5656-.6513-.2258 .1023-1.2346 .2116-2.0405 .2941-2.5648 .35-2.8075 .8025-6.8869 12.4533-4.9708 5.1247-2.0215c1.6993-.6684 3.3008-1.2945 4.8043-1.8783s2.8202-1.0886 3.9499-1.5142l2.5615-.9292 4.0389-1.5276-1.9676,1.6311zm66.5901,20.2722c-3.0793.1048-6.0614.2141-8.9463.3281s-5.5263.2258-7.9245.3354-4.407.21-6.0264.3014-2.7035.1667-3.2521.2261l-3.9094.4142 8.9581-10.7704c1.2193-1.5242 2.3745-2.9564 3.4656-4.2966s2.0643-2.5304 2.9196-3.5708l2.0506-2.4981 .8588-1.0781 .3629-.0788 .6371.0691 .8168.21 .9017.3435 1.4567.6444 2.3912,1.0158c.924.3877 1.9169.7991 2.9787,1.2342s2.1348.8683 3.2189,1.2998c1.5888.6697 3.005,1.3061 4.2484,1.9094s2.4121,1.2333 3.5057,1.89 2.2106,1.4 3.3505,2.2298 2.4006,1.8062 3.7824,2.9289l2.6497,2.2172 2.1594,1.8314 1.4313,1.2634 .4652.5133-1.8487.1371c-1.1799.065-2.801.1455-4.8634.2415s-4.4441.2042-7.145.3241l-8.6935.3847zm-24.1039-10.7963c-1.2253,1.4922-2.3768,2.8882-3.4544,4.1882s-2.0309,2.4444-2.8597,3.4333-1.4827,1.7628-1.9616,2.3217l-.7601.8531-.8467-.9769-1.8491-2.3921c-.7311-.9658-1.4721-1.9654-2.223-2.9988s-1.4069-1.9659-1.9681-2.7974l-.9996-1.3572-1.5408-1.9665-1.8759-2.3305c-.6639-.8171-1.3321-1.6336-2.0045-2.4495-1.8714-2.1847-3.2484-3.8445-4.1311-4.9795l-.6845-2.2342c.4264-.3546 1.6675-.4537 3.7234-.2973s5.0866.4334 9.0924.8313l5.8035.5749 5.4394.5481 4.4782.4462 2.92.269 4.6344.5437-8.9322,10.7704z"/>
</svg>
